<?xml version="1.0" encoding="UTF-8"?>
<svg width="20px" height="19px" viewBox="0 0 20 19" version="1.1" xmlns="http://www.w3.org/2000/svg" xmlns:xlink="http://www.w3.org/1999/xlink">
    <title>icons / Vários / 16 / Produtos TAP Copy 86</title>
    <defs>
        <path d="M17.2931636,4.0311218 C18.7605215,4.0311218 20,5.30020833 20,6.80234774 L20,15.6595352 C20,17.1339102 18.7858414,18.3333333 17.2931636,18.3333333 L2.81547252,18.3333333 C1.28943406,18.3333333 0,17.1088381 0,15.6595352 L0,10.8673958 C0,10.866218 0,10.8652083 0,10.8640305 C0,10.8635256 0,10.8628526 0,10.8623477 L0,6.80234774 C0,5.32612181 1.31578047,4.0311218 2.81547252,4.0311218 L6.34024501,4.0311218 C6.58420585,2.22879006 8.15609387,0.833333333 10.0542325,0.833333333 C11.9523712,0.833333333 13.5244303,2.22879006 13.7683911,4.0311218 L17.2931636,4.0311218 Z M18.8026073,10.839968 L18.8026073,6.80234774 C18.8026073,5.95359774 18.0972422,5.20900643 17.2931636,5.20900643 L16.563163,5.20900643 L16.563163,12.3829968 L17.2827277,12.3829968 C18.1064805,12.3829968 18.8026073,11.676266 18.8026073,10.839968 Z M18.8026073,15.6595352 L18.8026073,13.0942708 C18.3685759,13.3885737 17.8454116,13.5608814 17.2827277,13.5608814 L16.563163,13.5608814 L16.563163,17.1554487 L17.2931636,17.1554487 C18.1254705,17.1554487 18.8026073,16.484391 18.8026073,15.6595352 Z M4.83678918,12.3829968 L15.3655991,12.3829968 L15.3655991,5.20900643 L4.83678918,5.20900643 L4.83678918,12.3829968 Z M10.0540614,10.8372756 C9.55142681,10.8372756 9.1437419,10.4364583 9.1437419,9.94191507 C9.1437419,9.44754007 9.55142681,9.04655448 10.0540614,9.04655448 C10.5570383,9.04655448 10.964381,9.44737181 10.964381,9.94191507 C10.964381,10.4362901 10.5568672,10.8372756 10.0540614,10.8372756 Z M4.83678918,17.1554487 L15.3655991,17.1554487 L15.3655991,13.5608814 L4.83678918,13.5608814 L4.83678918,17.1554487 Z M3.63922535,12.3829968 L3.63922535,5.20900643 L2.81547252,5.20900643 C1.98402108,5.20900643 1.1977349,5.98338143 1.1977349,6.80234774 L1.1977349,10.8673958 C1.19961678,11.7033574 1.88068843,12.3829968 2.71778553,12.3829968 L3.63922535,12.3829968 Z M3.63922535,17.1554487 L3.63922535,13.5608814 L2.71778553,13.5608814 C2.15510162,13.5608814 1.63193732,13.3902564 1.1977349,13.0984776 L1.1977349,15.6595352 C1.1977349,16.4564583 1.95373982,17.1554487 2.81547252,17.1554487 L3.63922535,17.1554487 Z M10.0542325,2.01121795 C8.81800453,2.01121795 7.78519128,2.88116987 7.55320604,4.0311218 L12.5554301,4.0311218 C12.323616,2.88116987 11.2906316,2.01121795 10.0542325,2.01121795 Z" id="path-1"></path>
    </defs>
    <g id="Menu" stroke="none" stroke-width="1" fill="none" fill-rule="evenodd">
        <g id="1920---Menu---Preparar-a-viagem-Copy" transform="translate(-446.000000, -128.000000)">
            <g id="Group-4-Copy" transform="translate(412.000000, 96.000000)">
                <g id="icons-/-Vários-/-16-/-Produtos-TAP-Copy-86" transform="translate(34.000000, 32.000000)">
                    <mask id="mask-2" fill="white">
                        <use xlink:href="#path-1"></use>
                    </mask>
                    <use id="Luggage" fill="#3A970E" fill-rule="nonzero" xlink:href="#path-1"></use>
                </g>
            </g>
        </g>
    </g>
</svg>