<?xml version="1.0" encoding="UTF-8"?>
<svg width="20px" height="20px" viewBox="0 0 20 20" version="1.1" xmlns="http://www.w3.org/2000/svg" xmlns:xlink="http://www.w3.org/1999/xlink">
    <title>icons / Vários / 16 / Produtos TAP Copy 89</title>
    <defs>
        <path d="M14.1819231,7.2494231 L9.2028846,12.2286539 L6.6301923,9.65596155 C6.3675,9.3928846 5.94134615,9.3928846 5.67846155,9.65596155 C5.4155769,9.91865385 5.4155769,10.345 5.67846155,10.6076923 L8.7271154,13.6561539 C8.85846155,13.7876923 9.03076925,13.8534616 9.2030769,13.8534616 C9.3751923,13.8534616 9.5475,13.7876923 9.67903845,13.6561539 L15.1338462,8.20115385 C15.3967307,7.93846155 15.3967307,7.5121154 15.1338462,7.2494231 C14.8709616,6.98653845 14.4448077,6.98653845 14.1819231,7.2494231 M10,18.6538461 C5.22826925,18.6538461 1.34615384,14.7717307 1.34615384,10 C1.34615384,5.2280769 5.22826925,1.34615384 10,1.34615384 C14.7717307,1.34615384 18.6538461,5.2280769 18.6538461,10 C18.6538461,14.7717307 14.7717307,18.6538461 10,18.6538461 M10,0 C4.48596154,0 0,4.48596154 0,10 C0,15.5140384 4.48596154,20 10,20 C15.5140384,20 20,15.5140384 20,10 C20,4.48596154 15.5140384,0 10,0" id="path-1"></path>
    </defs>
    <g id="Menu" stroke="none" stroke-width="1" fill="none" fill-rule="evenodd">
        <g id="1920---Menu---Preparar-a-viagem-Copy" transform="translate(-636.000000, -129.000000)">
            <g id="Group-4-Copy" transform="translate(412.000000, 96.000000)">
                <g id="icons-/-Vários-/-16-/-Produtos-TAP-Copy-89" transform="translate(224.000000, 33.000000)">
                    <mask id="mask-2" fill="white">
                        <use xlink:href="#path-1"></use>
                    </mask>
                    <use id="Check-in" fill="#3A970E" fill-rule="nonzero" xlink:href="#path-1"></use>
                </g>
            </g>
        </g>
    </g>
</svg>