<?xml version="1.0" encoding="UTF-8"?>
<svg width="21px" height="16px" viewBox="0 0 21 16" version="1.1" xmlns="http://www.w3.org/2000/svg" xmlns:xlink="http://www.w3.org/1999/xlink">
    <title>icons / Vários / 16 / Produtos TAP Copy 3</title>
    <defs>
        <path d="M5.52226823,7.92511734 L7.16887565,9.77000723 L8.81499593,7.92511734 C8.97088776,7.75039891 9.22096422,7.68913565 9.44278532,7.77028945 C9.66444402,7.85192006 9.81124214,8.0597368 9.81124214,8.29174022 L9.81124214,12.4631901 C9.81124214,12.7706185 9.55678121,13.0201258 9.24288652,13.0201258 C8.92899182,13.0201258 8.67453089,12.7706185 8.67453089,12.4631901 L8.67453089,9.77462198 L7.63330338,10.941323 C7.51329917,11.0759425 7.34198054,11.1376825 7.17293534,11.1282941 C7.00129193,11.1402285 6.82623841,11.0781702 6.70428555,10.941323 L5.66273326,9.77446267 L5.66273326,12.4631901 C5.66273326,12.7706185 5.40827233,13.0201258 5.09437763,13.0201258 C4.78048294,13.0201258 4.52602201,12.7706185 4.52602201,12.4631901 L4.52602201,8.29174022 C4.52602201,8.0597368 4.67298254,7.85192006 4.89464124,7.77028945 C5.11629993,7.68913565 5.36637639,7.75039891 5.52226823,7.92511734 Z M16.7432609,6.93223966 L18.8820932,6.93223966 L18.8820932,5.62580875 L16.7432609,5.62580875 L16.7432609,6.93223966 Z M16.7432609,9.36211395 L18.8820932,9.36211395 L18.8820932,8.05568304 L16.7432609,8.05568304 L16.7432609,9.36211395 Z M16.7432609,11.9439957 L18.8820932,11.9439957 L18.8820932,10.4857181 L16.7432609,10.4857181 L16.7432609,11.9439957 Z M16.7432609,14.3741913 L18.8820932,14.3741913 L18.8820932,13.0675999 L16.7432609,13.0675999 L16.7432609,14.3741913 Z M16.7432609,16.804226 L18.8820932,16.804226 L18.8820932,15.4977955 L16.7432609,15.4977955 L16.7432609,16.804226 Z M11.8898122,4.50220455 L15.6211874,4.50220455 L15.6211874,3.19577401 L11.8898122,3.19577401 L11.8898122,4.50220455 Z M15.6211874,6.93223966 L15.6211874,5.62580875 L11.9164213,5.62580875 C11.915139,5.68038393 11.9069639,5.7344774 11.8898122,5.7871265 L11.8898122,6.93223966 L15.6211874,6.93223966 Z M11.8898122,9.36211395 L15.6211874,9.36211395 L15.6211874,8.05568304 L11.8898122,8.05568304 L11.8898122,9.36211395 Z M11.8898122,11.9439957 L15.6211874,11.9439957 L15.6211874,10.4857181 L11.8898122,10.4857181 L11.8898122,11.9439957 Z M11.8898122,14.3741913 L15.6211874,14.3741913 L15.6211874,13.0675999 L11.8898122,13.0675999 L11.8898122,14.3741913 Z M15.6211874,16.804226 L15.6211874,15.4977955 L11.8898122,15.4977955 L11.8898122,15.6860792 C11.9268406,15.7998843 11.9263597,15.921715 11.8898122,16.033915 L11.8898122,16.804226 L15.6211874,16.804226 Z M10.7677387,7.49404157 L10.7677387,5.8649759 C9.73126339,5.09707268 8.46492333,4.67668439 7.16892846,4.67668439 C3.83236284,4.67668439 1.11790681,7.39500409 1.11790681,10.7361213 C1.11790681,14.077399 3.83236284,16.7957187 7.16892846,16.7957187 C8.46476304,16.7957187 9.7311031,16.3751696 10.7677387,15.6072663 L10.7677387,12.505798 L10.7677387,7.49404157 Z M20.0041667,17.3660283 C20.0041667,17.6761427 19.7529825,17.9278302 19.4431299,17.9278302 L16.2580442,17.9278302 C16.2450602,17.9278302 16.2328777,17.9247802 16.220054,17.923978 C16.2073906,17.9247802 16.1952081,17.9278302 16.1822241,17.9278302 L11.3287754,17.9278302 C11.0189229,17.9278302 10.7677387,17.6761427 10.7677387,17.3660283 L10.7677387,16.9483683 C9.68060981,17.5790313 8.4368715,17.9193229 7.16892846,17.9193229 C3.21377977,17.9193229 -0.00416666667,14.6969865 -0.00416666667,10.7361213 C-0.00416666667,6.77541661 3.21377977,3.55308019 7.16892846,3.55308019 C8.43703179,3.55308019 9.6807701,3.89337173 10.7677387,4.52387433 L10.7677387,2.63397172 C10.7677387,2.32385728 11.0189229,2.07216981 11.3287754,2.07216981 L16.1822241,2.07216981 C16.4920767,2.07216981 16.7432609,2.32385728 16.7432609,2.63397172 L16.7432609,4.50220455 L19.4431299,4.50220455 C19.7529825,4.50220455 20.0041667,4.75373157 20.0041667,5.06400683 L20.0041667,9.92391586 L20.0041667,12.505798 L20.0041667,17.3660283 Z" id="path-1"></path>
    </defs>
    <g id="Menu" stroke="none" stroke-width="1" fill="none" fill-rule="evenodd">
        <g id="1920---Menu---TAP-Miles&amp;go-Copy" transform="translate(-586.000000, -130.000000)">
            <g id="Group-10" transform="translate(361.000000, 96.000000)">
                <g id="icons-/-Vários-/-16-/-Produtos-TAP-Copy-3" transform="translate(225.000000, 32.000000)">
                    <mask id="mask-2" fill="white">
                        <use xlink:href="#path-1"></use>
                    </mask>
                    <use id="Accumulate-Miles" fill="#3A970E" fill-rule="nonzero" xlink:href="#path-1"></use>
                </g>
            </g>
        </g>
    </g>
</svg>