<?xml version="1.0" encoding="UTF-8"?>
<svg width="20px" height="20px" viewBox="0 0 20 20" version="1.1" xmlns="http://www.w3.org/2000/svg" xmlns:xlink="http://www.w3.org/1999/xlink">
    <title>icons / Vários / 16 / Produtos TAP Copy 6</title>
    <defs>
        <path d="M16.9095959,11.3107435 C16.83317,11.4450042 16.8057543,11.6019568 16.8324189,11.7545601 L17.3255255,14.5806528 L14.6564403,15.5626468 C14.5114751,15.6159729 14.3897946,15.7190321 14.3126176,15.8534819 L12.8928235,18.3316314 L10.2250527,17.3549323 C10.0798998,17.3019844 9.92085133,17.3019844 9.77551066,17.3549323 L7.10773985,18.3333333 L5.68813351,15.8576421 C5.61095649,15.7228141 5.48890039,15.6197548 5.34374754,15.5666179 L2.67578895,14.5889732 L3.1688956,11.7730919 C3.19574794,11.6201104 3.1679567,11.4622122 3.09077969,11.3273843 L1.66666667,8.84318355 L3.85428755,6.9332781 C3.96883251,6.83305538 4.04563396,6.69633637 4.07135963,6.54581315 L4.56615629,3.65939768 L7.40330342,3.65939768 C7.55784519,3.65939768 7.70750477,3.60455881 7.82580528,3.50452515 L10.0004694,1.66666667 L12.1755092,3.50452515 C12.2938097,3.60455881 12.4434692,3.65939768 12.5980111,3.65939768 L15.4347826,3.65939768 L15.9299548,6.54581315 C15.956056,6.69803831 16.034172,6.83627007 16.1509703,6.93668193 L18.3333333,8.81141479 L16.9095959,11.3107435 Z M19.7652195,8.15623919 L17.3074898,6.04490829 L16.7490191,2.79070102 C16.6938213,2.46801105 16.415732,2.23224352 16.0904667,2.23224352 L12.8853717,2.23224352 L10.4297429,0.157643125 C10.1810668,-0.0527399705 9.81874837,-0.052355358 9.57026326,0.157643125 L7.11501645,2.23224352 L3.90953945,2.23224352 C3.58427416,2.23224352 3.30618475,2.46820335 3.25079607,2.79070102 L2.6925163,6.04798519 L0.23058467,8.19700809 C-0.0114065925,8.40816044 -0.0706151886,8.76277324 0.089630012,9.04200199 L1.69246401,11.8371741 L1.13571221,15.0156127 C1.07936855,15.3375334 1.26062325,15.6533004 1.56545202,15.7650303 L4.57764161,16.8686762 L6.1804756,19.6634637 C6.30271271,19.8767314 6.52636838,20 6.75957386,20 C6.83578108,20 6.91294326,19.9867306 6.98819544,19.9594231 L10.000194,18.855008 L13.0121926,19.9575001 C13.3168304,20.0690377 13.6573753,19.9442309 13.8197215,19.6613484 L15.4227465,16.8638686 L18.4353181,15.7556073 C18.7395738,15.6436851 18.9204466,15.3283027 18.8642939,15.0071512 L18.3077331,11.8179435 L19.9113311,9.00315614 C20.0713852,8.72238894 20.0100757,8.36662229 19.7652195,8.15623919 Z M10.293627,9.25073897 C9.06263673,8.89699864 8.39560332,8.61249433 8.39560332,8.12326628 L8.39560332,8.09282627 C8.39560332,7.54709529 9.10413506,7.11954299 10.0084931,7.11954299 C10.6663472,7.11954299 11.43072,7.38395292 12.003665,7.80931675 C12.1302636,7.90362094 12.2887988,7.94022853 12.4417881,7.91038542 C12.5949687,7.8809402 12.7299817,7.78763074 12.815847,7.65234196 L12.9850914,7.38554456 C13.1562482,7.11576283 13.0896978,6.75326855 12.8351619,6.56784333 C12.2777071,6.16197704 11.6248252,5.87767168 10.9600867,5.73522053 L10.9600867,4.86300592 C10.9600867,4.4784277 10.6604188,4.16666667 10.2907584,4.16666667 C9.92109801,4.16666667 9.62143017,4.4784277 9.62143017,4.86300592 L9.62143017,5.65165987 C8.06552891,5.79888587 6.97375893,6.78569804 6.97375893,8.10874259 L6.97375893,8.13798886 C6.97375893,9.82054342 8.61724658,10.3065882 9.93830929,10.697334 L10.0499915,10.7301614 C11.2083118,11.0701739 11.9114889,11.3206571 11.9114889,11.9294566 L11.9114889,11.9596976 C11.9114889,12.546811 11.1520882,13.0065939 10.1827097,13.0065939 C9.35694992,13.0065939 8.44111764,12.6570316 7.79320791,12.0937926 C7.67311131,11.9895407 7.51744467,11.940399 7.36177808,11.9589018 C7.20630266,11.9770066 7.06478757,12.0601694 6.96974294,12.1894895 L6.78462587,12.4413654 C6.59836138,12.6948329 6.63660875,13.0559345 6.87163858,13.2610562 C7.62472844,13.9185994 8.62298369,14.3479423 9.62143017,14.4633356 L9.62143017,15.1369941 C9.62143017,15.5215723 9.92109801,15.8333333 10.2907584,15.8333333 C10.6604188,15.8333333 10.9600867,15.5215723 10.9600867,15.1369941 L10.9600867,14.4209584 C12.3727517,14.1547578 13.3333333,13.1959982 13.3333333,11.9441792 L13.3333333,11.9149329 C13.3333333,10.1147965 11.5754861,9.61502388 10.293627,9.25073897 Z" id="path-1"></path>
    </defs>
    <g id="Menu" stroke="none" stroke-width="1" fill="none" fill-rule="evenodd">
        <g id="1920---Menu---TAP-Miles&amp;go-Copy" transform="translate(-969.000000, -128.000000)">
            <g id="Group-10" transform="translate(361.000000, 96.000000)">
                <g id="icons-/-Vários-/-16-/-Produtos-TAP-Copy-6" transform="translate(608.000000, 32.000000)">
                    <mask id="mask-2" fill="white">
                        <use xlink:href="#path-1"></use>
                    </mask>
                    <use id="Promotions" fill="#3A970E" fill-rule="nonzero" xlink:href="#path-1"></use>
                </g>
            </g>
        </g>
    </g>
</svg>