<svg width="22" height="20" viewBox="0 0 22 20" fill="none" xmlns="http://www.w3.org/2000/svg">
<path d="M6.59609 11.1278C6.72663 10.4257 7.02202 9.52134 7.67409 8.79863C8.31063 8.09314 9.32653 7.51587 11 7.51587C12.6735 7.51587 13.6894 8.09314 14.3259 8.79863C14.978 9.52134 15.2734 10.4257 15.4039 11.1278C15.4476 11.3626 15.2656 11.63 14.9003 11.63H7.0997C6.73435 11.63 6.55245 11.3626 6.59609 11.1278Z" stroke="#3A970E" stroke-width="0.99"/>
<path d="M13.3493 3.79166C13.3493 5.1409 12.2859 6.21332 11 6.21332C9.71415 6.21332 8.65067 5.1409 8.65067 3.79166C8.65067 2.44242 9.71415 1.37 11 1.37C12.2859 1.37 13.3493 2.44242 13.3493 3.79166Z" stroke="#3A970E" stroke-width="0.99"/>
<mask id="path-3-outside-1_8_395" maskUnits="userSpaceOnUse" x="7.5" y="13.375" width="7" height="7" fill="black">
<rect fill="white" x="7.5" y="13.375" width="7" height="7"/>
<path fill-rule="evenodd" clip-rule="evenodd" d="M13.3716 16.1031C13.4295 16.1161 13.4763 16.1586 13.4948 16.2149C13.5132 16.2713 13.5006 16.3332 13.4617 16.378L12.47 17.5161L12.733 19.1835C12.7429 19.246 12.717 19.3087 12.6659 19.3458C12.6365 19.3673 12.6017 19.3781 12.5667 19.3781C12.5408 19.3781 12.5147 19.3722 12.4907 19.36L11.0025 18.6069L9.55143 19.3593C9.49558 19.3882 9.42832 19.3836 9.3769 19.3474C9.32552 19.3112 9.29858 19.2493 9.3071 19.187L9.53454 17.5177L8.54142 16.378C8.50246 16.3332 8.4899 16.2713 8.50837 16.2149C8.5268 16.1586 8.57361 16.1161 8.63148 16.1031L10.0955 15.7744L10.8558 14.4591C10.8859 14.4071 10.9414 14.375 11.0016 14.375C11.0617 14.375 11.1172 14.4071 11.1473 14.4591L11.9076 15.7744L13.3716 16.1031ZM12.1623 17.3572C12.1629 17.3562 12.1636 17.3551 12.1645 17.3541L13.0222 16.3698L11.7619 16.0868C11.7613 16.0867 11.7608 16.0865 11.7603 16.0863C11.7598 16.0861 11.7593 16.0859 11.7588 16.0858C11.7533 16.0845 11.7481 16.0825 11.7428 16.0805C11.7421 16.0803 11.7414 16.08 11.7407 16.0798C11.7394 16.0793 11.738 16.0788 11.7366 16.0783C11.7334 16.0772 11.7303 16.0762 11.7273 16.0748C11.7235 16.073 11.7199 16.0708 11.7163 16.0686C11.7151 16.0678 11.7139 16.0671 11.7126 16.0663C11.7114 16.0656 11.7102 16.0649 11.7089 16.0642C11.7056 16.0623 11.7023 16.0604 11.6992 16.0581C11.6961 16.0558 11.6932 16.0532 11.6904 16.0506C11.6894 16.0496 11.6884 16.0487 11.6873 16.0477C11.6865 16.047 11.6857 16.0463 11.6848 16.0456C11.6814 16.0426 11.6779 16.0396 11.6748 16.0362C11.6726 16.0338 11.6707 16.0312 11.6687 16.0285C11.6678 16.0273 11.6669 16.026 11.6659 16.0248C11.6653 16.0239 11.6647 16.0231 11.664 16.0223C11.6608 16.0181 11.6576 16.014 11.655 16.0095C11.6547 16.009 11.6543 16.0086 11.654 16.0082C11.6537 16.0078 11.6533 16.0073 11.653 16.0068L11.0016 14.8798L10.3502 16.0068C10.3266 16.0475 10.2871 16.0765 10.2412 16.0868L8.98093 16.3698L9.83863 17.3541C9.87052 17.3907 9.88505 17.4393 9.87851 17.4874L9.68459 18.9109L10.9241 18.2683C10.9721 18.2434 11.0293 18.2431 11.0776 18.2675L12.3491 18.911L12.1252 17.4909C12.1249 17.4897 12.1249 17.4884 12.1249 17.4872C12.1249 17.4861 12.1249 17.4851 12.1247 17.484C12.124 17.478 12.1238 17.472 12.1238 17.466C12.1237 17.4608 12.1237 17.4556 12.1241 17.4505C12.1246 17.4449 12.1255 17.4395 12.1266 17.4339C12.1276 17.4286 12.1286 17.4234 12.1301 17.4183C12.1316 17.4131 12.1335 17.408 12.1355 17.4029C12.1376 17.3978 12.1396 17.3928 12.1421 17.388C12.1445 17.3833 12.1473 17.3788 12.1502 17.3743C12.1534 17.3693 12.1567 17.3645 12.1604 17.3599C12.1611 17.359 12.1617 17.3581 12.1623 17.3572Z"/>
</mask>
<path fill-rule="evenodd" clip-rule="evenodd" d="M13.3716 16.1031C13.4295 16.1161 13.4763 16.1586 13.4948 16.2149C13.5132 16.2713 13.5006 16.3332 13.4617 16.378L12.47 17.5161L12.733 19.1835C12.7429 19.246 12.717 19.3087 12.6659 19.3458C12.6365 19.3673 12.6017 19.3781 12.5667 19.3781C12.5408 19.3781 12.5147 19.3722 12.4907 19.36L11.0025 18.6069L9.55143 19.3593C9.49558 19.3882 9.42832 19.3836 9.3769 19.3474C9.32552 19.3112 9.29858 19.2493 9.3071 19.187L9.53454 17.5177L8.54142 16.378C8.50246 16.3332 8.4899 16.2713 8.50837 16.2149C8.5268 16.1586 8.57361 16.1161 8.63148 16.1031L10.0955 15.7744L10.8558 14.4591C10.8859 14.4071 10.9414 14.375 11.0016 14.375C11.0617 14.375 11.1172 14.4071 11.1473 14.4591L11.9076 15.7744L13.3716 16.1031ZM12.1623 17.3572C12.1629 17.3562 12.1636 17.3551 12.1645 17.3541L13.0222 16.3698L11.7619 16.0868C11.7613 16.0867 11.7608 16.0865 11.7603 16.0863C11.7598 16.0861 11.7593 16.0859 11.7588 16.0858C11.7533 16.0845 11.7481 16.0825 11.7428 16.0805C11.7421 16.0803 11.7414 16.08 11.7407 16.0798C11.7394 16.0793 11.738 16.0788 11.7366 16.0783C11.7334 16.0772 11.7303 16.0762 11.7273 16.0748C11.7235 16.073 11.7199 16.0708 11.7163 16.0686C11.7151 16.0678 11.7139 16.0671 11.7126 16.0663C11.7114 16.0656 11.7102 16.0649 11.7089 16.0642C11.7056 16.0623 11.7023 16.0604 11.6992 16.0581C11.6961 16.0558 11.6932 16.0532 11.6904 16.0506C11.6894 16.0496 11.6884 16.0487 11.6873 16.0477C11.6865 16.047 11.6857 16.0463 11.6848 16.0456C11.6814 16.0426 11.6779 16.0396 11.6748 16.0362C11.6726 16.0338 11.6707 16.0312 11.6687 16.0285C11.6678 16.0273 11.6669 16.026 11.6659 16.0248C11.6653 16.0239 11.6647 16.0231 11.664 16.0223C11.6608 16.0181 11.6576 16.014 11.655 16.0095C11.6547 16.009 11.6543 16.0086 11.654 16.0082C11.6537 16.0078 11.6533 16.0073 11.653 16.0068L11.0016 14.8798L10.3502 16.0068C10.3266 16.0475 10.2871 16.0765 10.2412 16.0868L8.98093 16.3698L9.83863 17.3541C9.87052 17.3907 9.88505 17.4393 9.87851 17.4874L9.68459 18.9109L10.9241 18.2683C10.9721 18.2434 11.0293 18.2431 11.0776 18.2675L12.3491 18.911L12.1252 17.4909C12.1249 17.4897 12.1249 17.4884 12.1249 17.4872C12.1249 17.4861 12.1249 17.4851 12.1247 17.484C12.124 17.478 12.1238 17.472 12.1238 17.466C12.1237 17.4608 12.1237 17.4556 12.1241 17.4505C12.1246 17.4449 12.1255 17.4395 12.1266 17.4339C12.1276 17.4286 12.1286 17.4234 12.1301 17.4183C12.1316 17.4131 12.1335 17.408 12.1355 17.4029C12.1376 17.3978 12.1396 17.3928 12.1421 17.388C12.1445 17.3833 12.1473 17.3788 12.1502 17.3743C12.1534 17.3693 12.1567 17.3645 12.1604 17.3599C12.1611 17.359 12.1617 17.3581 12.1623 17.3572Z" fill="#3A970E"/>
<path d="M13.4948 16.2149L13.7038 16.1464L13.7038 16.1464L13.4948 16.2149ZM13.3716 16.1031L13.3234 16.3178L13.3234 16.3178L13.3716 16.1031ZM13.4617 16.378L13.6275 16.5225L13.6276 16.5225L13.4617 16.378ZM12.47 17.5161L12.3041 17.3715L12.2367 17.4489L12.2527 17.5503L12.47 17.5161ZM12.733 19.1835L12.5157 19.2178L12.5157 19.2179L12.733 19.1835ZM12.6659 19.3458L12.5364 19.168L12.5362 19.1681L12.6659 19.3458ZM12.4907 19.36L12.5902 19.1638L12.59 19.1637L12.4907 19.36ZM11.0025 18.6069L11.1018 18.4106L11.0013 18.3597L10.9012 18.4116L11.0025 18.6069ZM9.55143 19.3593L9.65257 19.5546L9.65269 19.5546L9.55143 19.3593ZM9.3769 19.3474L9.25013 19.5272L9.25021 19.5272L9.3769 19.3474ZM9.3071 19.187L9.52507 19.2169L9.52508 19.2167L9.3071 19.187ZM9.53454 17.5177L9.75253 17.5474L9.76601 17.4484L9.70041 17.3732L9.53454 17.5177ZM8.54142 16.378L8.37553 16.5225L8.37556 16.5225L8.54142 16.378ZM8.50837 16.2149L8.71744 16.2834L8.71749 16.2833L8.50837 16.2149ZM8.63148 16.1031L8.67966 16.3178L8.67967 16.3178L8.63148 16.1031ZM10.0955 15.7744L10.1437 15.9891L10.2378 15.968L10.286 15.8845L10.0955 15.7744ZM10.8558 14.4591L10.6653 14.349L10.6653 14.349L10.8558 14.4591ZM11.1473 14.4591L11.3378 14.349L11.3378 14.349L11.1473 14.4591ZM11.9076 15.7744L11.7171 15.8845L11.7654 15.968L11.8594 15.9891L11.9076 15.7744ZM12.1645 17.3541L11.9986 17.2095L11.9984 17.2098L12.1645 17.3541ZM12.1623 17.3572L11.977 17.2385L11.977 17.2385L12.1623 17.3572ZM13.0222 16.3698L13.1881 16.5143L13.4306 16.236L13.0704 16.1551L13.0222 16.3698ZM11.7619 16.0868L11.8101 15.8722L11.8086 15.8719L11.7619 16.0868ZM11.7603 16.0863L11.8395 15.8811L11.8395 15.8811L11.7603 16.0863ZM11.7588 16.0858L11.7058 16.2994L11.7101 16.3004L11.7588 16.0858ZM11.7428 16.0805L11.6659 16.2866L11.6659 16.2866L11.7428 16.0805ZM11.7407 16.0798L11.8173 15.8735L11.8163 15.8731L11.7407 16.0798ZM11.7366 16.0783L11.6655 16.2865L11.6655 16.2865L11.7366 16.0783ZM11.7273 16.0748L11.8212 15.8758L11.8212 15.8758L11.7273 16.0748ZM11.7163 16.0686L11.6016 16.2563L11.6016 16.2563L11.7163 16.0686ZM11.7126 16.0663L11.6 16.2553L11.6003 16.2555L11.7126 16.0663ZM11.7089 16.0642L11.5993 16.2549L11.5993 16.2549L11.7089 16.0642ZM11.6992 16.0581L11.8299 15.8811L11.8286 15.8801L11.6992 16.0581ZM11.6904 16.0506L11.5406 16.2117L11.5406 16.2117L11.6904 16.0506ZM11.6873 16.0477L11.8346 15.8843L11.8323 15.8823L11.6873 16.0477ZM11.6848 16.0456L11.8287 15.8791L11.8287 15.8791L11.6848 16.0456ZM11.6748 16.0362L11.8377 15.8883L11.8369 15.8874L11.6748 16.0362ZM11.6687 16.0285L11.4918 16.1593L11.4918 16.1593L11.6687 16.0285ZM11.6659 16.0248L11.4907 16.1579L11.492 16.1595L11.6659 16.0248ZM11.664 16.0223L11.8386 15.8884L11.8386 15.8884L11.664 16.0223ZM11.655 16.0095L11.8438 15.8965L11.8436 15.8962L11.655 16.0095ZM11.654 16.0082L11.8244 15.869L11.8243 15.8689L11.654 16.0082ZM11.653 16.0068L11.844 15.8976L11.8435 15.8967L11.653 16.0068ZM11.0016 14.8798L11.192 14.7697L11.0016 14.4402L10.8111 14.7697L11.0016 14.8798ZM10.3502 16.0068L10.5405 16.1171L10.5406 16.1169L10.3502 16.0068ZM10.2412 16.0868L10.2894 16.3015L10.2896 16.3015L10.2412 16.0868ZM8.98093 16.3698L8.93274 16.1551L8.57254 16.236L8.81506 16.5143L8.98093 16.3698ZM9.83863 17.3541L10.0045 17.2096L10.0045 17.2095L9.83863 17.3541ZM9.87851 17.4874L10.0965 17.5171L10.0965 17.517L9.87851 17.4874ZM9.68459 18.9109L9.4666 18.8812L9.40936 19.3014L9.78585 19.1062L9.68459 18.9109ZM10.9241 18.2683L11.0253 18.4636L11.0253 18.4636L10.9241 18.2683ZM11.0776 18.2675L11.1769 18.0712L11.1769 18.0712L11.0776 18.2675ZM12.3491 18.911L12.2498 19.1073L12.6334 19.3014L12.5665 18.8767L12.3491 18.911ZM12.1252 17.4909L12.3425 17.4567L12.3423 17.4555L12.1252 17.4909ZM12.1249 17.4872L12.3449 17.4828L12.3449 17.4827L12.1249 17.4872ZM12.1247 17.484L11.9061 17.5085L11.9064 17.5113L12.1247 17.484ZM12.1238 17.466L12.3438 17.4643L12.3438 17.464L12.1238 17.466ZM12.1241 17.4505L11.905 17.4316L11.9049 17.432L12.1241 17.4505ZM12.1266 17.4339L11.9104 17.3927L11.9101 17.3944L12.1266 17.4339ZM12.1301 17.4183L12.3412 17.4801L12.3417 17.4785L12.1301 17.4183ZM12.1355 17.4029L12.3397 17.4849L12.3398 17.4846L12.1355 17.4029ZM12.1421 17.388L12.3373 17.4895L12.3389 17.4864L12.1421 17.388ZM12.1502 17.3743L12.3357 17.4926L12.336 17.4922L12.1502 17.3743ZM12.1604 17.3599L12.3313 17.4984L12.3326 17.4968L12.1604 17.3599ZM13.7038 16.1464C13.6612 16.0163 13.5532 15.9184 13.4198 15.8884L13.3234 16.3178C13.3058 16.3138 13.2914 16.3008 13.2857 16.2834L13.7038 16.1464ZM13.6276 16.5225C13.7173 16.4194 13.7465 16.2766 13.7038 16.1464L13.2857 16.2834C13.28 16.266 13.2839 16.2471 13.2958 16.2335L13.6276 16.5225ZM12.6359 17.6606L13.6275 16.5225L13.2958 16.2335L12.3041 17.3715L12.6359 17.6606ZM12.9503 19.1493L12.6873 17.4818L12.2527 17.5503L12.5157 19.2178L12.9503 19.1493ZM12.7953 19.5237C12.9133 19.4379 12.9731 19.2932 12.9503 19.1492L12.5157 19.2179C12.5127 19.1988 12.5206 19.1795 12.5364 19.168L12.7953 19.5237ZM12.5667 19.5981C12.6472 19.5981 12.7277 19.5731 12.7955 19.5236L12.5362 19.1681C12.5454 19.1614 12.5562 19.1581 12.5667 19.1581V19.5981ZM12.3912 19.5562C12.4468 19.5844 12.5071 19.5981 12.5667 19.5981V19.1581C12.5745 19.1581 12.5826 19.1599 12.5902 19.1638L12.3912 19.5562ZM10.9032 18.8032L12.3914 19.5563L12.59 19.1637L11.1018 18.4106L10.9032 18.8032ZM9.65269 19.5546L11.1037 18.8022L10.9012 18.4116L9.45017 19.164L9.65269 19.5546ZM9.25021 19.5272C9.36875 19.6107 9.52384 19.6213 9.65257 19.5546L9.45029 19.1639C9.46732 19.1551 9.4879 19.1565 9.50359 19.1675L9.25021 19.5272ZM9.08912 19.1572C9.06946 19.301 9.13166 19.4437 9.25013 19.5272L9.50367 19.1676C9.51938 19.1787 9.5277 19.1976 9.52507 19.2169L9.08912 19.1572ZM9.31656 17.488L9.08911 19.1573L9.52508 19.2167L9.75253 17.5474L9.31656 17.488ZM8.37556 16.5225L9.36868 17.6622L9.70041 17.3732L8.70729 16.2335L8.37556 16.5225ZM8.29931 16.1464C8.2567 16.2765 8.28568 16.4193 8.37553 16.5225L8.70732 16.2335C8.71924 16.2472 8.7231 16.2662 8.71744 16.2834L8.29931 16.1464ZM8.5833 15.8884C8.4499 15.9184 8.34183 16.0163 8.29926 16.1466L8.71749 16.2833C8.71177 16.3008 8.69731 16.3138 8.67966 16.3178L8.5833 15.8884ZM10.0473 15.5598L8.58329 15.8884L8.67967 16.3178L10.1437 15.9891L10.0473 15.5598ZM10.6653 14.349L9.90505 15.6643L10.286 15.8845L11.0462 14.5692L10.6653 14.349ZM11.0016 14.155C10.8628 14.155 10.7347 14.229 10.6653 14.349L11.0462 14.5693C11.037 14.5851 11.0201 14.595 11.0016 14.595V14.155ZM11.3378 14.349C11.2684 14.2291 11.1404 14.155 11.0016 14.155V14.595C10.983 14.595 10.966 14.5851 10.9569 14.5693L11.3378 14.349ZM12.0981 15.6643L11.3378 14.349L10.9569 14.5692L11.7171 15.8845L12.0981 15.6643ZM13.4198 15.8884L11.9558 15.5598L11.8594 15.9891L13.3234 16.3178L13.4198 15.8884ZM11.9984 17.2098C11.9913 17.218 11.986 17.2253 11.9826 17.2301C11.9809 17.2326 11.9796 17.2346 11.9787 17.236C11.9778 17.2372 11.9771 17.2384 11.977 17.2385L12.3475 17.476C12.3482 17.4749 12.3463 17.4778 12.344 17.4811C12.3414 17.4849 12.3369 17.4911 12.3306 17.4983L11.9984 17.2098ZM12.8563 16.2252L11.9986 17.2095L12.3304 17.4986L13.1881 16.5143L12.8563 16.2252ZM11.7137 16.3015L12.974 16.5844L13.0704 16.1551L11.8101 15.8722L11.7137 16.3015ZM11.6811 16.2916C11.6812 16.2916 11.6815 16.2917 11.6819 16.2919C11.6822 16.292 11.6829 16.2922 11.6836 16.2925C11.6851 16.2931 11.6874 16.2939 11.6902 16.2949C11.6958 16.2968 11.7045 16.2995 11.7152 16.3018L11.8086 15.8719C11.8188 15.8741 11.8269 15.8766 11.832 15.8783C11.8366 15.8799 11.8404 15.8814 11.8395 15.8811L11.6811 16.2916ZM11.7101 16.3004C11.7004 16.2982 11.6927 16.2957 11.688 16.2941C11.6838 16.2926 11.6803 16.2913 11.6811 16.2916L11.8395 15.8811C11.8394 15.881 11.8391 15.8809 11.8388 15.8808C11.8384 15.8807 11.8379 15.8804 11.8372 15.8802C11.8359 15.8797 11.8338 15.8789 11.8311 15.878C11.8259 15.8762 11.8178 15.8736 11.8076 15.8713L11.7101 16.3004ZM11.6659 16.2866C11.6692 16.2879 11.6862 16.2945 11.7059 16.2994L11.8118 15.8723C11.817 15.8736 11.8205 15.8748 11.8217 15.8752C11.8225 15.8755 11.8228 15.8756 11.8197 15.8744L11.6659 16.2866ZM11.6642 16.286C11.6647 16.2862 11.6652 16.2864 11.6659 16.2866L11.8197 15.8744C11.819 15.8742 11.8182 15.8738 11.8173 15.8735L11.6642 16.286ZM11.6655 16.2865L11.6652 16.2864L11.8163 15.8731C11.8123 15.8717 11.8087 15.8705 11.8077 15.8701L11.6655 16.2865ZM11.6334 16.2737C11.6494 16.2813 11.6645 16.2862 11.6655 16.2865L11.8077 15.8701C11.8056 15.8694 11.8069 15.8698 11.8087 15.8705C11.8108 15.8713 11.8153 15.873 11.8212 15.8758L11.6334 16.2737ZM11.6016 16.2563C11.6035 16.2574 11.6171 16.266 11.6335 16.2737L11.8212 15.8758C11.8263 15.8782 11.8299 15.8803 11.8314 15.8811C11.8326 15.8818 11.8333 15.8822 11.8311 15.8809L11.6016 16.2563ZM11.6003 16.2555C11.6001 16.2554 11.6002 16.2554 11.6016 16.2563L11.8311 15.8809C11.8301 15.8803 11.8276 15.8788 11.825 15.8772L11.6003 16.2555ZM11.5993 16.2549L11.6 16.2553L11.8252 15.8774C11.8223 15.8756 11.8196 15.874 11.8186 15.8735L11.5993 16.2549ZM11.5685 16.235C11.5834 16.2461 11.5979 16.2541 11.5993 16.2549L11.8186 15.8735C11.8165 15.8722 11.8175 15.8728 11.819 15.8737C11.8208 15.8748 11.8248 15.8774 11.8299 15.8811L11.5685 16.235ZM11.5406 16.2117C11.5418 16.2128 11.5542 16.2246 11.5698 16.236L11.8286 15.8801C11.834 15.8841 11.8379 15.8874 11.8396 15.8889C11.841 15.8902 11.842 15.8911 11.8402 15.8894L11.5406 16.2117ZM11.5401 16.2112L11.5406 16.2117L11.8402 15.8894C11.8394 15.8887 11.8371 15.8866 11.8346 15.8843L11.5401 16.2112ZM11.541 16.212C11.5419 16.2128 11.5422 16.213 11.5423 16.2132L11.8323 15.8823C11.8308 15.881 11.8294 15.8797 11.8287 15.8791L11.541 16.212ZM11.512 16.1841C11.5255 16.199 11.5392 16.2105 11.541 16.212L11.8287 15.8791C11.8265 15.8772 11.8273 15.8779 11.8285 15.879C11.8299 15.8803 11.8334 15.8835 11.8377 15.8883L11.512 16.1841ZM11.4918 16.1593C11.4926 16.1603 11.5013 16.1725 11.5127 16.1849L11.8369 15.8874C11.841 15.8919 11.8438 15.8954 11.8451 15.8971C11.8462 15.8984 11.8469 15.8994 11.8456 15.8977L11.4918 16.1593ZM11.492 16.1595L11.4918 16.1593L11.8456 15.8977C11.8449 15.8968 11.8426 15.8935 11.8398 15.89L11.492 16.1595ZM11.4894 16.1562C11.4901 16.1571 11.4905 16.1575 11.4907 16.1579L11.8411 15.8917C11.8401 15.8904 11.8392 15.8892 11.8386 15.8884L11.4894 16.1562ZM11.4662 16.1224C11.4764 16.1396 11.4876 16.1537 11.4894 16.1562L11.8386 15.8884C11.8367 15.8859 11.837 15.8863 11.8376 15.8872C11.8385 15.8884 11.8409 15.8917 11.8438 15.8965L11.4662 16.1224ZM11.4837 16.1474C11.4842 16.1481 11.4818 16.1452 11.4792 16.1417C11.4762 16.1377 11.4714 16.1312 11.4663 16.1227L11.8436 15.8962C11.8382 15.8873 11.8332 15.8803 11.8299 15.876C11.8282 15.8738 11.8268 15.872 11.8259 15.8709C11.8254 15.8703 11.8251 15.8698 11.8248 15.8695C11.8246 15.8693 11.8244 15.869 11.8244 15.869L11.4837 16.1474ZM11.462 16.1159C11.4678 16.1262 11.4735 16.1341 11.4773 16.1393C11.4792 16.1419 11.4809 16.1439 11.4819 16.1453C11.4825 16.1459 11.4829 16.1465 11.4832 16.1468C11.4835 16.1472 11.4837 16.1475 11.4837 16.1475L11.8243 15.8689C11.8237 15.8682 11.8265 15.8716 11.8296 15.8758C11.8332 15.8804 11.8384 15.8879 11.844 15.8976L11.462 16.1159ZM10.8111 14.9899L11.4625 16.1169L11.8435 15.8967L11.192 14.7697L10.8111 14.9899ZM10.5406 16.1169L11.192 14.9899L10.8111 14.7697L10.1597 15.8967L10.5406 16.1169ZM10.2896 16.3015C10.3954 16.2776 10.4862 16.2108 10.5405 16.1171L10.1598 15.8965C10.1669 15.8842 10.1789 15.8754 10.1929 15.8722L10.2896 16.3015ZM9.02912 16.5844L10.2894 16.3015L10.193 15.8722L8.93274 16.1551L9.02912 16.5844ZM10.0045 17.2095L9.14679 16.2252L8.81506 16.5143L9.67276 17.4986L10.0045 17.2095ZM10.0965 17.517C10.1116 17.4061 10.0781 17.294 10.0045 17.2096L9.67275 17.4986C9.66294 17.4873 9.65853 17.4724 9.66051 17.4578L10.0965 17.517ZM9.90258 18.9406L10.0965 17.5171L9.66052 17.4577L9.4666 18.8812L9.90258 18.9406ZM10.8228 18.073L9.58333 18.7156L9.78585 19.1062L11.0253 18.4636L10.8228 18.073ZM11.1769 18.0712C11.0655 18.0148 10.9337 18.0155 10.8228 18.073L11.0253 18.4636C11.0106 18.4712 10.9931 18.4713 10.9783 18.4638L11.1769 18.0712ZM12.4485 18.7147L11.1769 18.0712L10.9782 18.4638L12.2498 19.1073L12.4485 18.7147ZM11.9078 17.5252L12.1318 18.9452L12.5665 18.8767L12.3425 17.4567L11.9078 17.5252ZM11.9049 17.4916C11.9049 17.4917 11.905 17.493 11.905 17.4945C11.9051 17.4961 11.9051 17.4985 11.9053 17.5015C11.9056 17.5073 11.9063 17.516 11.908 17.5264L12.3423 17.4555C12.3438 17.4646 12.3443 17.4721 12.3446 17.4766C12.3448 17.4807 12.3449 17.484 12.3449 17.4828L11.9049 17.4916ZM11.9064 17.5113C11.9056 17.5045 11.9052 17.499 11.9051 17.4958C11.905 17.493 11.9049 17.4906 11.9049 17.4916L12.3449 17.4827C12.3449 17.4827 12.3448 17.4793 12.3446 17.4754C12.3444 17.4711 12.344 17.4646 12.343 17.4567L11.9064 17.5113ZM11.9038 17.4678C11.9039 17.4783 11.9043 17.4924 11.9061 17.5085L12.3434 17.4595C12.3438 17.4636 12.3438 17.4658 12.3438 17.4643L11.9038 17.4678ZM11.9049 17.432C11.9035 17.4484 11.9037 17.4626 11.9038 17.468L12.3438 17.464C12.3437 17.4618 12.3437 17.4617 12.3437 17.4623C12.3437 17.4631 12.3437 17.4655 12.3434 17.4689L11.9049 17.432ZM11.9101 17.3944C11.9089 17.4012 11.9064 17.4151 11.905 17.4316L12.3433 17.4694C12.3429 17.4747 12.3422 17.4778 12.343 17.4735L11.9101 17.3944ZM11.9189 17.3566C11.914 17.3733 11.9113 17.3884 11.9105 17.3927L12.3426 17.4752C12.3432 17.4724 12.3432 17.4723 12.3431 17.4728C12.3429 17.4736 12.3423 17.4763 12.3412 17.4801L11.9189 17.3566ZM11.9314 17.3208C11.9285 17.3282 11.9231 17.3417 11.9185 17.3582L12.3417 17.4785C12.34 17.4845 12.3385 17.4878 12.3397 17.4849L11.9314 17.3208ZM11.947 17.2865C11.939 17.3017 11.9335 17.3155 11.9313 17.3211L12.3398 17.4846C12.3406 17.4826 12.3406 17.4826 12.3403 17.4832C12.34 17.484 12.339 17.4863 12.3373 17.4895L11.947 17.2865ZM11.9648 17.2559C11.9626 17.2592 11.9536 17.273 11.9454 17.2896L12.3389 17.4864C12.3368 17.4906 12.3351 17.4935 12.3346 17.4943C12.3342 17.495 12.3341 17.4951 12.3357 17.4926L11.9648 17.2559ZM11.9895 17.2214C11.9788 17.2346 11.9705 17.2468 11.9645 17.2564L12.336 17.4922C12.3363 17.4917 12.3346 17.4944 12.3313 17.4984L11.9895 17.2214ZM11.977 17.2385C11.9765 17.2394 11.9777 17.2375 11.9793 17.2352C11.981 17.2326 11.984 17.2282 11.9882 17.223L12.3326 17.4968C12.3375 17.4907 12.3411 17.4855 12.3435 17.482C12.3456 17.4788 12.3474 17.476 12.3475 17.4759L11.977 17.2385Z" fill="#3A970E" mask="url(#path-3-outside-1_8_395)"/>
<mask id="path-5-outside-2_8_395" maskUnits="userSpaceOnUse" x="15" y="10.875" width="7" height="7" fill="black">
<rect fill="white" x="15" y="10.875" width="7" height="7"/>
<path fill-rule="evenodd" clip-rule="evenodd" d="M20.8716 13.6031C20.9295 13.6161 20.9763 13.6586 20.9948 13.7149C21.0132 13.7713 21.0006 13.8332 20.9617 13.878L19.97 15.0161L20.233 16.6835C20.2429 16.746 20.217 16.8087 20.1659 16.8458C20.1365 16.8673 20.1017 16.8781 20.0667 16.8781C20.0408 16.8781 20.0147 16.8722 19.9907 16.86L18.5025 16.1069L17.0514 16.8593C16.9956 16.8882 16.9283 16.8836 16.8769 16.8474C16.8255 16.8112 16.7986 16.7493 16.8071 16.687L17.0345 15.0177L16.0414 13.878C16.0025 13.8332 15.9899 13.7713 16.0084 13.7149C16.0268 13.6586 16.0736 13.6161 16.1315 13.6031L17.5955 13.2744L18.3558 11.9591C18.3859 11.9071 18.4414 11.875 18.5016 11.875C18.5617 11.875 18.6172 11.9071 18.6473 11.9591L19.4076 13.2744L20.8716 13.6031ZM19.6623 14.8572C19.6629 14.8562 19.6636 14.8551 19.6645 14.8541L20.5222 13.8698L19.2619 13.5868C19.2613 13.5867 19.2608 13.5865 19.2603 13.5863C19.2598 13.5861 19.2593 13.5859 19.2588 13.5858C19.2533 13.5845 19.2481 13.5825 19.2428 13.5805C19.2421 13.5803 19.2414 13.58 19.2407 13.5798C19.2394 13.5793 19.238 13.5788 19.2366 13.5783C19.2334 13.5772 19.2303 13.5762 19.2273 13.5748C19.2235 13.573 19.2199 13.5708 19.2163 13.5686C19.2151 13.5678 19.2139 13.5671 19.2126 13.5663C19.2114 13.5656 19.2102 13.5649 19.2089 13.5642C19.2056 13.5623 19.2023 13.5604 19.1992 13.5581C19.1961 13.5558 19.1932 13.5532 19.1904 13.5506C19.1894 13.5496 19.1884 13.5487 19.1873 13.5477C19.1865 13.547 19.1857 13.5463 19.1848 13.5456C19.1814 13.5426 19.1779 13.5396 19.1748 13.5362C19.1726 13.5338 19.1707 13.5312 19.1687 13.5285C19.1678 13.5273 19.1669 13.526 19.1659 13.5248C19.1653 13.5239 19.1647 13.5231 19.164 13.5223C19.1608 13.5181 19.1576 13.514 19.155 13.5095C19.1547 13.509 19.1543 13.5086 19.154 13.5082C19.1537 13.5078 19.1533 13.5073 19.153 13.5068L18.5016 12.3798L17.8502 13.5068C17.8266 13.5475 17.7871 13.5765 17.7412 13.5868L16.4809 13.8698L17.3386 14.8541C17.3705 14.8907 17.3851 14.9393 17.3785 14.9874L17.1846 16.4109L18.4241 15.7683C18.4721 15.7434 18.5293 15.7431 18.5776 15.7675L19.8491 16.411L19.6252 14.9909C19.6249 14.9897 19.6249 14.9884 19.6249 14.9872C19.6249 14.9861 19.6249 14.9851 19.6247 14.984C19.624 14.978 19.6238 14.972 19.6238 14.966C19.6237 14.9608 19.6237 14.9556 19.6241 14.9505C19.6246 14.9449 19.6255 14.9395 19.6266 14.9339C19.6276 14.9286 19.6286 14.9234 19.6301 14.9183C19.6316 14.9131 19.6335 14.908 19.6355 14.9029C19.6376 14.8978 19.6396 14.8928 19.6421 14.888C19.6445 14.8833 19.6473 14.8788 19.6502 14.8743C19.6534 14.8693 19.6567 14.8645 19.6604 14.8599C19.6611 14.859 19.6617 14.8581 19.6623 14.8572Z"/>
</mask>
<path fill-rule="evenodd" clip-rule="evenodd" d="M20.8716 13.6031C20.9295 13.6161 20.9763 13.6586 20.9948 13.7149C21.0132 13.7713 21.0006 13.8332 20.9617 13.878L19.97 15.0161L20.233 16.6835C20.2429 16.746 20.217 16.8087 20.1659 16.8458C20.1365 16.8673 20.1017 16.8781 20.0667 16.8781C20.0408 16.8781 20.0147 16.8722 19.9907 16.86L18.5025 16.1069L17.0514 16.8593C16.9956 16.8882 16.9283 16.8836 16.8769 16.8474C16.8255 16.8112 16.7986 16.7493 16.8071 16.687L17.0345 15.0177L16.0414 13.878C16.0025 13.8332 15.9899 13.7713 16.0084 13.7149C16.0268 13.6586 16.0736 13.6161 16.1315 13.6031L17.5955 13.2744L18.3558 11.9591C18.3859 11.9071 18.4414 11.875 18.5016 11.875C18.5617 11.875 18.6172 11.9071 18.6473 11.9591L19.4076 13.2744L20.8716 13.6031ZM19.6623 14.8572C19.6629 14.8562 19.6636 14.8551 19.6645 14.8541L20.5222 13.8698L19.2619 13.5868C19.2613 13.5867 19.2608 13.5865 19.2603 13.5863C19.2598 13.5861 19.2593 13.5859 19.2588 13.5858C19.2533 13.5845 19.2481 13.5825 19.2428 13.5805C19.2421 13.5803 19.2414 13.58 19.2407 13.5798C19.2394 13.5793 19.238 13.5788 19.2366 13.5783C19.2334 13.5772 19.2303 13.5762 19.2273 13.5748C19.2235 13.573 19.2199 13.5708 19.2163 13.5686C19.2151 13.5678 19.2139 13.5671 19.2126 13.5663C19.2114 13.5656 19.2102 13.5649 19.2089 13.5642C19.2056 13.5623 19.2023 13.5604 19.1992 13.5581C19.1961 13.5558 19.1932 13.5532 19.1904 13.5506C19.1894 13.5496 19.1884 13.5487 19.1873 13.5477C19.1865 13.547 19.1857 13.5463 19.1848 13.5456C19.1814 13.5426 19.1779 13.5396 19.1748 13.5362C19.1726 13.5338 19.1707 13.5312 19.1687 13.5285C19.1678 13.5273 19.1669 13.526 19.1659 13.5248C19.1653 13.5239 19.1647 13.5231 19.164 13.5223C19.1608 13.5181 19.1576 13.514 19.155 13.5095C19.1547 13.509 19.1543 13.5086 19.154 13.5082C19.1537 13.5078 19.1533 13.5073 19.153 13.5068L18.5016 12.3798L17.8502 13.5068C17.8266 13.5475 17.7871 13.5765 17.7412 13.5868L16.4809 13.8698L17.3386 14.8541C17.3705 14.8907 17.3851 14.9393 17.3785 14.9874L17.1846 16.4109L18.4241 15.7683C18.4721 15.7434 18.5293 15.7431 18.5776 15.7675L19.8491 16.411L19.6252 14.9909C19.6249 14.9897 19.6249 14.9884 19.6249 14.9872C19.6249 14.9861 19.6249 14.9851 19.6247 14.984C19.624 14.978 19.6238 14.972 19.6238 14.966C19.6237 14.9608 19.6237 14.9556 19.6241 14.9505C19.6246 14.9449 19.6255 14.9395 19.6266 14.9339C19.6276 14.9286 19.6286 14.9234 19.6301 14.9183C19.6316 14.9131 19.6335 14.908 19.6355 14.9029C19.6376 14.8978 19.6396 14.8928 19.6421 14.888C19.6445 14.8833 19.6473 14.8788 19.6502 14.8743C19.6534 14.8693 19.6567 14.8645 19.6604 14.8599C19.6611 14.859 19.6617 14.8581 19.6623 14.8572Z" fill="#3A970E"/>
<path d="M20.9948 13.7149L21.2038 13.6464L21.2038 13.6464L20.9948 13.7149ZM20.8716 13.6031L20.8234 13.8178L20.8234 13.8178L20.8716 13.6031ZM20.9617 13.878L21.1275 14.0225L21.1276 14.0225L20.9617 13.878ZM19.97 15.0161L19.8041 14.8715L19.7367 14.9489L19.7527 15.0503L19.97 15.0161ZM20.233 16.6835L20.0157 16.7178L20.0157 16.7179L20.233 16.6835ZM20.1659 16.8458L20.0364 16.668L20.0362 16.6681L20.1659 16.8458ZM19.9907 16.86L20.0902 16.6638L20.09 16.6637L19.9907 16.86ZM18.5025 16.1069L18.6018 15.9106L18.5013 15.8597L18.4012 15.9116L18.5025 16.1069ZM17.0514 16.8593L17.1526 17.0546L17.1527 17.0546L17.0514 16.8593ZM16.8769 16.8474L16.7501 17.0272L16.7502 17.0272L16.8769 16.8474ZM16.8071 16.687L17.0251 16.7169L17.0251 16.7167L16.8071 16.687ZM17.0345 15.0177L17.2525 15.0474L17.266 14.9484L17.2004 14.8732L17.0345 15.0177ZM16.0414 13.878L15.8755 14.0225L15.8756 14.0225L16.0414 13.878ZM16.0084 13.7149L16.2174 13.7834L16.2175 13.7833L16.0084 13.7149ZM16.1315 13.6031L16.1797 13.8178L16.1797 13.8178L16.1315 13.6031ZM17.5955 13.2744L17.6437 13.4891L17.7378 13.468L17.786 13.3845L17.5955 13.2744ZM18.3558 11.9591L18.1653 11.849L18.1653 11.849L18.3558 11.9591ZM18.6473 11.9591L18.8378 11.849L18.8378 11.849L18.6473 11.9591ZM19.4076 13.2744L19.2171 13.3845L19.2654 13.468L19.3594 13.4891L19.4076 13.2744ZM19.6645 14.8541L19.4986 14.7095L19.4984 14.7098L19.6645 14.8541ZM19.6623 14.8572L19.8475 14.976L19.8475 14.9759L19.6623 14.8572ZM20.5222 13.8698L20.6881 14.0143L20.9306 13.736L20.5704 13.6551L20.5222 13.8698ZM19.2619 13.5868L19.3101 13.3722L19.3086 13.3719L19.2619 13.5868ZM19.2603 13.5863L19.3395 13.3811L19.3395 13.3811L19.2603 13.5863ZM19.2588 13.5858L19.2058 13.7994L19.2101 13.8004L19.2588 13.5858ZM19.2428 13.5805L19.1659 13.7866L19.1659 13.7866L19.2428 13.5805ZM19.2407 13.5798L19.3173 13.3735L19.3163 13.3731L19.2407 13.5798ZM19.2366 13.5783L19.3077 13.3701L19.3077 13.3701L19.2366 13.5783ZM19.2273 13.5748L19.3212 13.3758L19.3212 13.3758L19.2273 13.5748ZM19.2163 13.5686L19.1016 13.7563L19.1016 13.7563L19.2163 13.5686ZM19.2126 13.5663L19.1 13.7553L19.1003 13.7555L19.2126 13.5663ZM19.2089 13.5642L19.0993 13.7549L19.0993 13.7549L19.2089 13.5642ZM19.1992 13.5581L19.3299 13.3811L19.3286 13.3801L19.1992 13.5581ZM19.1904 13.5506L19.0406 13.7117L19.0406 13.7117L19.1904 13.5506ZM19.1873 13.5477L19.3346 13.3843L19.3323 13.3823L19.1873 13.5477ZM19.1848 13.5456L19.3287 13.3791L19.3287 13.3791L19.1848 13.5456ZM19.1748 13.5362L19.3377 13.3883L19.3369 13.3874L19.1748 13.5362ZM19.1687 13.5285L18.9918 13.6593L18.9918 13.6593L19.1687 13.5285ZM19.1659 13.5248L18.9907 13.6579L18.992 13.6595L19.1659 13.5248ZM19.164 13.5223L19.3386 13.3884L19.3386 13.3884L19.164 13.5223ZM19.155 13.5095L19.3438 13.3965L19.3436 13.3962L19.155 13.5095ZM19.154 13.5082L19.3244 13.369L19.3243 13.3689L19.154 13.5082ZM19.153 13.5068L19.344 13.3976L19.3435 13.3967L19.153 13.5068ZM18.5016 12.3798L18.692 12.2697L18.5016 11.9402L18.3111 12.2697L18.5016 12.3798ZM17.8502 13.5068L18.0405 13.6171L18.0406 13.6169L17.8502 13.5068ZM17.7412 13.5868L17.7894 13.8015L17.7896 13.8015L17.7412 13.5868ZM16.4809 13.8698L16.4327 13.6551L16.0725 13.736L16.3151 14.0143L16.4809 13.8698ZM17.3386 14.8541L17.5045 14.7096L17.5045 14.7095L17.3386 14.8541ZM17.3785 14.9874L17.5965 15.0171L17.5965 15.017L17.3785 14.9874ZM17.1846 16.4109L16.9666 16.3812L16.9094 16.8014L17.2859 16.6062L17.1846 16.4109ZM18.4241 15.7683L18.5253 15.9636L18.5253 15.9636L18.4241 15.7683ZM18.5776 15.7675L18.6769 15.5712L18.6769 15.5712L18.5776 15.7675ZM19.8491 16.411L19.7498 16.6073L20.1334 16.8014L20.0665 16.3767L19.8491 16.411ZM19.6252 14.9909L19.8425 14.9567L19.8423 14.9555L19.6252 14.9909ZM19.6249 14.9872L19.8449 14.9828L19.8449 14.9827L19.6249 14.9872ZM19.6247 14.984L19.4061 15.0085L19.4064 15.0113L19.6247 14.984ZM19.6238 14.966L19.8438 14.9643L19.8438 14.964L19.6238 14.966ZM19.6241 14.9505L19.405 14.9316L19.4049 14.932L19.6241 14.9505ZM19.6266 14.9339L19.4104 14.8927L19.4101 14.8944L19.6266 14.9339ZM19.6301 14.9183L19.8412 14.9801L19.8417 14.9785L19.6301 14.9183ZM19.6355 14.9029L19.8397 14.9849L19.8398 14.9846L19.6355 14.9029ZM19.6421 14.888L19.8373 14.9895L19.8389 14.9864L19.6421 14.888ZM19.6502 14.8743L19.8357 14.9926L19.836 14.9922L19.6502 14.8743ZM19.6604 14.8599L19.8313 14.9984L19.8326 14.9968L19.6604 14.8599ZM21.2038 13.6464C21.1612 13.5163 21.0532 13.4184 20.9198 13.3884L20.8234 13.8178C20.8058 13.8138 20.7914 13.8008 20.7857 13.7834L21.2038 13.6464ZM21.1276 14.0225C21.2173 13.9194 21.2465 13.7766 21.2038 13.6464L20.7857 13.7834C20.78 13.766 20.7839 13.7471 20.7958 13.7335L21.1276 14.0225ZM20.1359 15.1606L21.1275 14.0225L20.7958 13.7335L19.8041 14.8715L20.1359 15.1606ZM20.4503 16.6493L20.1873 14.9818L19.7527 15.0503L20.0157 16.7178L20.4503 16.6493ZM20.2953 17.0237C20.4133 16.9379 20.4731 16.7932 20.4503 16.6492L20.0157 16.7179C20.0127 16.6988 20.0206 16.6795 20.0364 16.668L20.2953 17.0237ZM20.0667 17.0981C20.1472 17.0981 20.2277 17.0731 20.2955 17.0236L20.0362 16.6681C20.0454 16.6614 20.0562 16.6581 20.0667 16.6581V17.0981ZM19.8912 17.0562C19.9468 17.0844 20.0071 17.0981 20.0667 17.0981V16.6581C20.0745 16.6581 20.0826 16.6599 20.0902 16.6638L19.8912 17.0562ZM18.4032 16.3032L19.8914 17.0563L20.09 16.6637L18.6018 15.9106L18.4032 16.3032ZM17.1527 17.0546L18.6037 16.3022L18.4012 15.9116L16.9502 16.664L17.1527 17.0546ZM16.7502 17.0272C16.8688 17.1107 17.0238 17.1213 17.1526 17.0546L16.9503 16.6639C16.9673 16.6551 16.9879 16.6565 17.0036 16.6675L16.7502 17.0272ZM16.5891 16.6572C16.5695 16.801 16.6317 16.9437 16.7501 17.0272L17.0037 16.6676C17.0194 16.6787 17.0277 16.6976 17.0251 16.7169L16.5891 16.6572ZM16.8166 14.988L16.5891 16.6573L17.0251 16.7167L17.2525 15.0474L16.8166 14.988ZM15.8756 14.0225L16.8687 15.1622L17.2004 14.8732L16.2073 13.7335L15.8756 14.0225ZM15.7993 13.6464C15.7567 13.7765 15.7857 13.9193 15.8755 14.0225L16.2073 13.7335C16.2192 13.7472 16.2231 13.7662 16.2174 13.7834L15.7993 13.6464ZM16.0833 13.3884C15.9499 13.4184 15.8418 13.5163 15.7993 13.6466L16.2175 13.7833C16.2118 13.8008 16.1973 13.8138 16.1797 13.8178L16.0833 13.3884ZM17.5473 13.0598L16.0833 13.3884L16.1797 13.8178L17.6437 13.4891L17.5473 13.0598ZM18.1653 11.849L17.405 13.1643L17.786 13.3845L18.5462 12.0692L18.1653 11.849ZM18.5016 11.655C18.3628 11.655 18.2347 11.729 18.1653 11.849L18.5462 12.0693C18.537 12.0851 18.5201 12.095 18.5016 12.095V11.655ZM18.8378 11.849C18.7684 11.7291 18.6404 11.655 18.5016 11.655V12.095C18.483 12.095 18.466 12.0851 18.4569 12.0693L18.8378 11.849ZM19.5981 13.1643L18.8378 11.849L18.4569 12.0692L19.2171 13.3845L19.5981 13.1643ZM20.9198 13.3884L19.4558 13.0598L19.3594 13.4891L20.8234 13.8178L20.9198 13.3884ZM19.4984 14.7098C19.4913 14.718 19.486 14.7253 19.4826 14.7301C19.4809 14.7326 19.4795 14.7346 19.4787 14.736C19.4778 14.7373 19.4771 14.7384 19.477 14.7385L19.8475 14.9759C19.8482 14.9748 19.8464 14.9777 19.844 14.9811C19.8414 14.9849 19.8369 14.9911 19.8306 14.9983L19.4984 14.7098ZM20.3563 13.7252L19.4986 14.7095L19.8304 14.9986L20.6881 14.0143L20.3563 13.7252ZM19.2137 13.8015L20.474 14.0844L20.5704 13.6551L19.3101 13.3722L19.2137 13.8015ZM19.1811 13.7916C19.1812 13.7916 19.1815 13.7917 19.1819 13.7919C19.1822 13.792 19.1829 13.7922 19.1836 13.7925C19.1851 13.7931 19.1874 13.7939 19.1902 13.7949C19.1958 13.7968 19.2045 13.7995 19.2152 13.8018L19.3086 13.3719C19.3188 13.3741 19.3269 13.3766 19.332 13.3783C19.3366 13.3799 19.3404 13.3814 19.3395 13.3811L19.1811 13.7916ZM19.2101 13.8004C19.2004 13.7982 19.1927 13.7957 19.188 13.7941C19.1838 13.7926 19.1803 13.7913 19.1811 13.7916L19.3395 13.3811C19.3394 13.381 19.3391 13.3809 19.3388 13.3808C19.3384 13.3807 19.3379 13.3804 19.3372 13.3802C19.3359 13.3797 19.3338 13.3789 19.3311 13.378C19.3259 13.3762 19.3178 13.3736 19.3076 13.3713L19.2101 13.8004ZM19.1659 13.7866C19.1692 13.7879 19.1862 13.7945 19.2059 13.7994L19.3118 13.3723C19.317 13.3736 19.3205 13.3748 19.3217 13.3752C19.3225 13.3755 19.3228 13.3756 19.3197 13.3744L19.1659 13.7866ZM19.1642 13.786C19.1647 13.7862 19.1652 13.7864 19.1659 13.7866L19.3197 13.3744C19.319 13.3742 19.3182 13.3738 19.3173 13.3735L19.1642 13.786ZM19.1655 13.7865L19.1652 13.7864L19.3163 13.3731C19.3123 13.3717 19.3087 13.3705 19.3077 13.3701L19.1655 13.7865ZM19.1334 13.7737C19.1494 13.7813 19.1645 13.7862 19.1655 13.7865L19.3077 13.3701C19.3056 13.3694 19.3069 13.3698 19.3087 13.3705C19.3108 13.3713 19.3153 13.373 19.3212 13.3758L19.1334 13.7737ZM19.1016 13.7563C19.1035 13.7574 19.1171 13.766 19.1335 13.7737L19.3212 13.3758C19.3263 13.3782 19.3299 13.3803 19.3314 13.3811C19.3326 13.3818 19.3333 13.3822 19.3311 13.3809L19.1016 13.7563ZM19.1003 13.7555C19.1001 13.7554 19.1002 13.7554 19.1016 13.7563L19.3311 13.3809C19.3301 13.3803 19.3276 13.3788 19.325 13.3772L19.1003 13.7555ZM19.0993 13.7549L19.1 13.7553L19.3252 13.3774C19.3223 13.3756 19.3196 13.374 19.3186 13.3735L19.0993 13.7549ZM19.0685 13.735C19.0834 13.7461 19.0979 13.7541 19.0993 13.7549L19.3186 13.3735C19.3165 13.3722 19.3175 13.3728 19.319 13.3737C19.3208 13.3748 19.3248 13.3774 19.3299 13.3811L19.0685 13.735ZM19.0406 13.7117C19.0418 13.7128 19.0542 13.7246 19.0698 13.736L19.3286 13.3801C19.334 13.3841 19.3379 13.3874 19.3396 13.3889C19.341 13.3902 19.342 13.3911 19.3402 13.3894L19.0406 13.7117ZM19.0401 13.7112L19.0406 13.7117L19.3402 13.3894C19.3394 13.3887 19.3371 13.3866 19.3346 13.3843L19.0401 13.7112ZM19.041 13.712C19.0419 13.7128 19.0422 13.713 19.0423 13.7132L19.3323 13.3823C19.3308 13.381 19.3294 13.3797 19.3287 13.3791L19.041 13.712ZM19.012 13.6841C19.0255 13.699 19.0392 13.7105 19.041 13.712L19.3287 13.3791C19.3265 13.3772 19.3273 13.3779 19.3285 13.379C19.3299 13.3803 19.3334 13.3835 19.3377 13.3883L19.012 13.6841ZM18.9918 13.6593C18.9926 13.6603 19.0013 13.6725 19.0127 13.6849L19.3369 13.3874C19.341 13.3919 19.3438 13.3954 19.3451 13.3971C19.3462 13.3984 19.3469 13.3994 19.3456 13.3977L18.9918 13.6593ZM18.992 13.6595L18.9918 13.6593L19.3456 13.3977C19.3449 13.3968 19.3426 13.3935 19.3398 13.39L18.992 13.6595ZM18.9894 13.6562C18.9901 13.6571 18.9905 13.6575 18.9907 13.6579L19.3411 13.3917C19.3401 13.3904 19.3392 13.3892 19.3386 13.3884L18.9894 13.6562ZM18.9662 13.6224C18.9764 13.6396 18.9876 13.6537 18.9894 13.6562L19.3386 13.3884C19.3367 13.3859 19.337 13.3863 19.3376 13.3872C19.3385 13.3884 19.3409 13.3917 19.3438 13.3965L18.9662 13.6224ZM18.9837 13.6474C18.9842 13.6481 18.9818 13.6452 18.9792 13.6417C18.9762 13.6377 18.9714 13.6312 18.9663 13.6227L19.3436 13.3962C19.3382 13.3873 19.3332 13.3803 19.3299 13.376C19.3282 13.3738 19.3268 13.372 19.3259 13.3709C19.3254 13.3703 19.3251 13.3698 19.3248 13.3695C19.3246 13.3693 19.3244 13.369 19.3244 13.369L18.9837 13.6474ZM18.962 13.6159C18.9678 13.6262 18.9735 13.6341 18.9773 13.6393C18.9792 13.6419 18.9809 13.6439 18.9819 13.6453C18.9825 13.6459 18.9829 13.6465 18.9832 13.6468C18.9835 13.6472 18.9837 13.6475 18.9837 13.6475L19.3243 13.3689C19.3237 13.3682 19.3265 13.3716 19.3296 13.3758C19.3332 13.3804 19.3384 13.3879 19.344 13.3976L18.962 13.6159ZM18.3111 12.4899L18.9625 13.6169L19.3435 13.3967L18.692 12.2697L18.3111 12.4899ZM18.0406 13.6169L18.692 12.4899L18.3111 12.2697L17.6597 13.3967L18.0406 13.6169ZM17.7896 13.8015C17.8954 13.7776 17.9862 13.7108 18.0405 13.6171L17.6598 13.3965C17.6669 13.3842 17.6789 13.3754 17.6929 13.3722L17.7896 13.8015ZM16.5291 14.0844L17.7894 13.8015L17.693 13.3722L16.4327 13.6551L16.5291 14.0844ZM17.5045 14.7095L16.6468 13.7252L16.3151 14.0143L17.1728 14.9986L17.5045 14.7095ZM17.5965 15.017C17.6116 14.9061 17.5781 14.794 17.5045 14.7096L17.1728 14.9986C17.1629 14.9873 17.1585 14.9724 17.1605 14.9578L17.5965 15.017ZM17.4026 16.4406L17.5965 15.0171L17.1605 14.9577L16.9666 16.3812L17.4026 16.4406ZM18.3228 15.573L17.0833 16.2156L17.2859 16.6062L18.5253 15.9636L18.3228 15.573ZM18.6769 15.5712C18.5655 15.5148 18.4337 15.5155 18.3228 15.573L18.5253 15.9636C18.5106 15.9712 18.4931 15.9713 18.4783 15.9638L18.6769 15.5712ZM19.9485 16.2147L18.6769 15.5712L18.4782 15.9638L19.7498 16.6073L19.9485 16.2147ZM19.4078 15.0252L19.6318 16.4452L20.0665 16.3767L19.8425 14.9567L19.4078 15.0252ZM19.4049 14.9916C19.4049 14.9917 19.405 14.993 19.405 14.9945C19.4051 14.9961 19.4051 14.9985 19.4053 15.0015C19.4056 15.0073 19.4063 15.016 19.408 15.0264L19.8423 14.9555C19.8438 14.9646 19.8443 14.9721 19.8446 14.9766C19.8448 14.9807 19.8449 14.984 19.8449 14.9828L19.4049 14.9916ZM19.4064 15.0113C19.4056 15.0045 19.4052 14.999 19.4051 14.9958C19.405 14.993 19.4049 14.9906 19.4049 14.9916L19.8449 14.9827C19.8449 14.9827 19.8448 14.9793 19.8446 14.9754C19.8444 14.9711 19.844 14.9646 19.843 14.9567L19.4064 15.0113ZM19.4038 14.9678C19.4039 14.9783 19.4043 14.9924 19.4061 15.0085L19.8434 14.9595C19.8438 14.9636 19.8438 14.9658 19.8438 14.9643L19.4038 14.9678ZM19.4049 14.932C19.4035 14.9484 19.4037 14.9626 19.4038 14.968L19.8438 14.964C19.8437 14.9618 19.8437 14.9617 19.8437 14.9623C19.8437 14.9631 19.8437 14.9655 19.8434 14.9689L19.4049 14.932ZM19.4101 14.8944C19.4089 14.9012 19.4064 14.9151 19.405 14.9316L19.8433 14.9694C19.8429 14.9747 19.8422 14.9778 19.843 14.9735L19.4101 14.8944ZM19.4189 14.8566C19.414 14.8733 19.4113 14.8884 19.4105 14.8927L19.8426 14.9752C19.8432 14.9724 19.8432 14.9723 19.8431 14.9728C19.8429 14.9736 19.8423 14.9763 19.8412 14.9801L19.4189 14.8566ZM19.4314 14.8208C19.4285 14.8282 19.4231 14.8417 19.4185 14.8582L19.8417 14.9785C19.84 14.9845 19.8385 14.9878 19.8397 14.9849L19.4314 14.8208ZM19.447 14.7865C19.439 14.8017 19.4335 14.8155 19.4313 14.8211L19.8398 14.9846C19.8406 14.9826 19.8406 14.9826 19.8403 14.9832C19.84 14.984 19.839 14.9863 19.8373 14.9895L19.447 14.7865ZM19.4648 14.7559C19.4626 14.7592 19.4536 14.773 19.4454 14.7896L19.8389 14.9864C19.8368 14.9906 19.8351 14.9934 19.8346 14.9943C19.8342 14.995 19.8341 14.9951 19.8357 14.9926L19.4648 14.7559ZM19.4895 14.7214C19.4788 14.7346 19.4705 14.7469 19.4645 14.7564L19.836 14.9922C19.8363 14.9917 19.8346 14.9944 19.8313 14.9984L19.4895 14.7214ZM19.477 14.7385C19.4765 14.7394 19.4777 14.7374 19.4793 14.7351C19.481 14.7326 19.484 14.7282 19.4882 14.723L19.8326 14.9968C19.8375 14.9907 19.8411 14.9855 19.8435 14.982C19.8456 14.9788 19.8474 14.976 19.8475 14.976L19.477 14.7385Z" fill="#3A970E" mask="url(#path-5-outside-2_8_395)"/>
<mask id="path-7-outside-3_8_395" maskUnits="userSpaceOnUse" x="0" y="10.875" width="7" height="7" fill="black">
<rect fill="white" y="10.875" width="7" height="7"/>
<path fill-rule="evenodd" clip-rule="evenodd" d="M5.87161 13.6031C5.92948 13.6161 5.97629 13.6586 5.99476 13.7149C6.01323 13.7713 6.00063 13.8332 5.96166 13.878L4.96999 15.0161L5.23304 16.6835C5.2429 16.746 5.21697 16.8087 5.16588 16.8458C5.13653 16.8673 5.1017 16.8781 5.06673 16.8781C5.0408 16.8781 5.01473 16.8722 4.99072 16.86L3.50248 16.1069L2.05143 16.8593C1.99558 16.8882 1.92832 16.8836 1.8769 16.8474C1.82552 16.8112 1.79858 16.7493 1.8071 16.687L2.03454 15.0177L1.04142 13.878C1.00246 13.8332 0.989901 13.7713 1.00837 13.7149C1.0268 13.6586 1.07361 13.6161 1.13148 13.6031L2.59552 13.2744L3.35576 11.9591C3.38587 11.9071 3.44143 11.875 3.50157 11.875C3.5617 11.875 3.61722 11.9071 3.64733 11.9591L4.40762 13.2744L5.87161 13.6031ZM4.66225 14.8572C4.66295 14.8562 4.66364 14.8551 4.66451 14.8541L5.52221 13.8698L4.2619 13.5868C4.26133 13.5867 4.26081 13.5865 4.2603 13.5863C4.25982 13.5861 4.25934 13.5859 4.25882 13.5858C4.25333 13.5845 4.24806 13.5825 4.24279 13.5805C4.2421 13.5803 4.24142 13.58 4.24073 13.5798C4.23936 13.5793 4.23798 13.5788 4.23659 13.5783C4.23344 13.5772 4.23028 13.5762 4.22731 13.5748C4.22351 13.573 4.21993 13.5708 4.21634 13.5686C4.21511 13.5678 4.21388 13.5671 4.21264 13.5663C4.21142 13.5656 4.21018 13.5649 4.20895 13.5642C4.20561 13.5623 4.20226 13.5604 4.19917 13.5581C4.19605 13.5558 4.19323 13.5532 4.1904 13.5506C4.18938 13.5496 4.18836 13.5487 4.18733 13.5477C4.1865 13.547 4.18567 13.5463 4.18483 13.5456C4.18136 13.5426 4.17789 13.5396 4.17483 13.5362C4.17263 13.5338 4.17068 13.5312 4.16872 13.5285C4.1678 13.5273 4.16688 13.526 4.16593 13.5248C4.16529 13.5239 4.16466 13.5231 4.16402 13.5223C4.16083 13.5181 4.15764 13.514 4.15496 13.5095C4.15468 13.509 4.15435 13.5086 4.15402 13.5082C4.15365 13.5078 4.15329 13.5073 4.15298 13.5068L3.50157 12.3798L2.85015 13.5068C2.82658 13.5475 2.78713 13.5765 2.74124 13.5868L1.48093 13.8698L2.33863 14.8541C2.37052 14.8907 2.38505 14.9393 2.37851 14.9874L2.18459 16.4109L3.42407 15.7683C3.47213 15.7434 3.52928 15.7431 3.57758 15.7675L4.84914 16.411L4.62515 14.9909C4.62495 14.9897 4.62492 14.9884 4.6249 14.9872C4.62488 14.9861 4.62485 14.9851 4.62472 14.984C4.62405 14.978 4.62381 14.972 4.62376 14.966C4.62371 14.9608 4.62371 14.9556 4.62414 14.9505C4.62463 14.9449 4.62554 14.9395 4.62655 14.9339C4.62756 14.9286 4.62857 14.9234 4.63006 14.9183C4.63155 14.9131 4.63348 14.908 4.63555 14.9029C4.63757 14.8978 4.63964 14.8928 4.64214 14.888C4.64449 14.8833 4.64733 14.8788 4.65022 14.8743C4.65339 14.8693 4.65671 14.8645 4.66042 14.8599C4.6611 14.859 4.66167 14.8581 4.66225 14.8572Z"/>
</mask>
<path fill-rule="evenodd" clip-rule="evenodd" d="M5.87161 13.6031C5.92948 13.6161 5.97629 13.6586 5.99476 13.7149C6.01323 13.7713 6.00063 13.8332 5.96166 13.878L4.96999 15.0161L5.23304 16.6835C5.2429 16.746 5.21697 16.8087 5.16588 16.8458C5.13653 16.8673 5.1017 16.8781 5.06673 16.8781C5.0408 16.8781 5.01473 16.8722 4.99072 16.86L3.50248 16.1069L2.05143 16.8593C1.99558 16.8882 1.92832 16.8836 1.8769 16.8474C1.82552 16.8112 1.79858 16.7493 1.8071 16.687L2.03454 15.0177L1.04142 13.878C1.00246 13.8332 0.989901 13.7713 1.00837 13.7149C1.0268 13.6586 1.07361 13.6161 1.13148 13.6031L2.59552 13.2744L3.35576 11.9591C3.38587 11.9071 3.44143 11.875 3.50157 11.875C3.5617 11.875 3.61722 11.9071 3.64733 11.9591L4.40762 13.2744L5.87161 13.6031ZM4.66225 14.8572C4.66295 14.8562 4.66364 14.8551 4.66451 14.8541L5.52221 13.8698L4.2619 13.5868C4.26133 13.5867 4.26081 13.5865 4.2603 13.5863C4.25982 13.5861 4.25934 13.5859 4.25882 13.5858C4.25333 13.5845 4.24806 13.5825 4.24279 13.5805C4.2421 13.5803 4.24142 13.58 4.24073 13.5798C4.23936 13.5793 4.23798 13.5788 4.23659 13.5783C4.23344 13.5772 4.23028 13.5762 4.22731 13.5748C4.22351 13.573 4.21993 13.5708 4.21634 13.5686C4.21511 13.5678 4.21388 13.5671 4.21264 13.5663C4.21142 13.5656 4.21018 13.5649 4.20895 13.5642C4.20561 13.5623 4.20226 13.5604 4.19917 13.5581C4.19605 13.5558 4.19323 13.5532 4.1904 13.5506C4.18938 13.5496 4.18836 13.5487 4.18733 13.5477C4.1865 13.547 4.18567 13.5463 4.18483 13.5456C4.18136 13.5426 4.17789 13.5396 4.17483 13.5362C4.17263 13.5338 4.17068 13.5312 4.16872 13.5285C4.1678 13.5273 4.16688 13.526 4.16593 13.5248C4.16529 13.5239 4.16466 13.5231 4.16402 13.5223C4.16083 13.5181 4.15764 13.514 4.15496 13.5095C4.15468 13.509 4.15435 13.5086 4.15402 13.5082C4.15365 13.5078 4.15329 13.5073 4.15298 13.5068L3.50157 12.3798L2.85015 13.5068C2.82658 13.5475 2.78713 13.5765 2.74124 13.5868L1.48093 13.8698L2.33863 14.8541C2.37052 14.8907 2.38505 14.9393 2.37851 14.9874L2.18459 16.4109L3.42407 15.7683C3.47213 15.7434 3.52928 15.7431 3.57758 15.7675L4.84914 16.411L4.62515 14.9909C4.62495 14.9897 4.62492 14.9884 4.6249 14.9872C4.62488 14.9861 4.62485 14.9851 4.62472 14.984C4.62405 14.978 4.62381 14.972 4.62376 14.966C4.62371 14.9608 4.62371 14.9556 4.62414 14.9505C4.62463 14.9449 4.62554 14.9395 4.62655 14.9339C4.62756 14.9286 4.62857 14.9234 4.63006 14.9183C4.63155 14.9131 4.63348 14.908 4.63555 14.9029C4.63757 14.8978 4.63964 14.8928 4.64214 14.888C4.64449 14.8833 4.64733 14.8788 4.65022 14.8743C4.65339 14.8693 4.65671 14.8645 4.66042 14.8599C4.6611 14.859 4.66167 14.8581 4.66225 14.8572Z" fill="#3A970E"/>
<path d="M5.99476 13.7149L6.20383 13.6464L6.20383 13.6464L5.99476 13.7149ZM5.87161 13.6031L5.82342 13.8178L5.82343 13.8178L5.87161 13.6031ZM5.96166 13.878L6.12753 14.0225L6.12756 14.0225L5.96166 13.878ZM4.96999 15.0161L4.80412 14.8715L4.73668 14.9489L4.75267 15.0503L4.96999 15.0161ZM5.23304 16.6835L5.01572 16.7178L5.01573 16.7179L5.23304 16.6835ZM5.16588 16.8458L5.03641 16.668L5.03622 16.6681L5.16588 16.8458ZM4.99072 16.86L5.09021 16.6638L5.09005 16.6637L4.99072 16.86ZM3.50248 16.1069L3.60181 15.9106L3.50126 15.8597L3.40122 15.9116L3.50248 16.1069ZM2.05143 16.8593L2.15257 17.0546L2.15269 17.0546L2.05143 16.8593ZM1.8769 16.8474L1.75013 17.0272L1.75021 17.0272L1.8769 16.8474ZM1.8071 16.687L2.02507 16.7169L2.02508 16.7167L1.8071 16.687ZM2.03454 15.0177L2.25253 15.0474L2.26601 14.9484L2.20041 14.8732L2.03454 15.0177ZM1.04142 13.878L0.875526 14.0225L0.87556 14.0225L1.04142 13.878ZM1.00837 13.7149L1.21744 13.7834L1.21749 13.7833L1.00837 13.7149ZM1.13148 13.6031L1.17966 13.8178L1.17967 13.8178L1.13148 13.6031ZM2.59552 13.2744L2.64371 13.4891L2.73776 13.468L2.78599 13.3845L2.59552 13.2744ZM3.35576 11.9591L3.16533 11.849L3.16528 11.849L3.35576 11.9591ZM3.64733 11.9591L3.8378 11.849L3.83776 11.849L3.64733 11.9591ZM4.40762 13.2744L4.21715 13.3845L4.26538 13.468L4.35942 13.4891L4.40762 13.2744ZM4.66451 14.8541L4.49864 14.7095L4.4984 14.7098L4.66451 14.8541ZM4.66225 14.8572L4.84747 14.976L4.84749 14.9759L4.66225 14.8572ZM5.52221 13.8698L5.68807 14.0143L5.9306 13.736L5.57039 13.6551L5.52221 13.8698ZM4.2619 13.5868L4.31009 13.3722L4.30862 13.3719L4.2619 13.5868ZM4.2603 13.5863L4.33946 13.3811L4.33946 13.3811L4.2603 13.5863ZM4.25882 13.5858L4.20584 13.7994L4.21005 13.8004L4.25882 13.5858ZM4.24279 13.5805L4.16586 13.7866L4.16587 13.7866L4.24279 13.5805ZM4.24073 13.5798L4.31727 13.3735L4.31627 13.3731L4.24073 13.5798ZM4.23659 13.5783L4.30767 13.3701L4.30767 13.3701L4.23659 13.5783ZM4.22731 13.5748L4.3212 13.3758L4.32117 13.3758L4.22731 13.5748ZM4.21634 13.5686L4.10159 13.7563L4.10159 13.7563L4.21634 13.5686ZM4.21264 13.5663L4.10003 13.7553L4.10028 13.7555L4.21264 13.5663ZM4.20895 13.5642L4.09931 13.7549L4.09933 13.7549L4.20895 13.5642ZM4.19917 13.5581L4.32988 13.3811L4.32857 13.3801L4.19917 13.5581ZM4.1904 13.5506L4.04059 13.7117L4.0406 13.7117L4.1904 13.5506ZM4.18733 13.5477L4.33463 13.3843L4.33234 13.3823L4.18733 13.5477ZM4.18483 13.5456L4.32869 13.3791L4.32868 13.3791L4.18483 13.5456ZM4.17483 13.5362L4.3377 13.3883L4.33691 13.3874L4.17483 13.5362ZM4.16872 13.5285L3.99181 13.6593L3.99182 13.6593L4.16872 13.5285ZM4.16593 13.5248L3.99073 13.6579L3.99203 13.6595L4.16593 13.5248ZM4.16402 13.5223L4.33859 13.3884L4.33859 13.3884L4.16402 13.5223ZM4.15496 13.5095L4.34375 13.3965L4.34358 13.3962L4.15496 13.5095ZM4.15402 13.5082L4.32437 13.369L4.32432 13.3689L4.15402 13.5082ZM4.15298 13.5068L4.344 13.3976L4.34345 13.3967L4.15298 13.5068ZM3.50157 12.3798L3.69204 12.2697L3.50157 11.9402L3.3111 12.2697L3.50157 12.3798ZM2.85015 13.5068L3.04052 13.6171L3.04062 13.6169L2.85015 13.5068ZM2.74124 13.5868L2.78942 13.8015L2.7896 13.8015L2.74124 13.5868ZM1.48093 13.8698L1.43274 13.6551L1.07254 13.736L1.31506 14.0143L1.48093 13.8698ZM2.33863 14.8541L2.50451 14.7096L2.50449 14.7095L2.33863 14.8541ZM2.37851 14.9874L2.5965 15.0171L2.59651 15.017L2.37851 14.9874ZM2.18459 16.4109L1.9666 16.3812L1.90936 16.8014L2.28585 16.6062L2.18459 16.4109ZM3.42407 15.7683L3.52533 15.9636L3.52534 15.9636L3.42407 15.7683ZM3.57758 15.7675L3.67691 15.5712L3.6769 15.5712L3.57758 15.7675ZM4.84914 16.411L4.74981 16.6073L5.13344 16.8014L5.06645 16.3767L4.84914 16.411ZM4.62515 14.9909L4.84247 14.9567L4.84228 14.9555L4.62515 14.9909ZM4.6249 14.9872L4.84485 14.9828L4.84485 14.9827L4.6249 14.9872ZM4.62472 14.984L4.40607 15.0085L4.40642 15.0113L4.62472 14.984ZM4.62376 14.966L4.84375 14.9643L4.84375 14.964L4.62376 14.966ZM4.62414 14.9505L4.40496 14.9316L4.40492 14.932L4.62414 14.9505ZM4.62655 14.9339L4.41045 14.8927L4.41013 14.8944L4.62655 14.9339ZM4.63006 14.9183L4.84122 14.9801L4.84167 14.9785L4.63006 14.9183ZM4.63555 14.9029L4.83968 14.9849L4.83981 14.9846L4.63555 14.9029ZM4.64214 14.888L4.83735 14.9895L4.83891 14.9864L4.64214 14.888ZM4.65022 14.8743L4.83566 14.9926L4.83597 14.9922L4.65022 14.8743ZM4.66042 14.8599L4.83133 14.9984L4.83264 14.9968L4.66042 14.8599ZM6.20383 13.6464C6.16119 13.5163 6.05321 13.4184 5.91979 13.3884L5.82343 13.8178C5.80575 13.8138 5.79138 13.8008 5.7857 13.7834L6.20383 13.6464ZM6.12756 14.0225C6.21732 13.9194 6.24648 13.7766 6.20383 13.6464L5.7857 13.7834C5.77999 13.766 5.78394 13.7471 5.79577 13.7335L6.12756 14.0225ZM5.13585 15.1606L6.12753 14.0225L5.7958 13.7335L4.80412 14.8715L5.13585 15.1606ZM5.45035 16.6493L5.1873 14.9818L4.75267 15.0503L5.01572 16.7178L5.45035 16.6493ZM5.29535 17.0237C5.41329 16.9379 5.47308 16.7932 5.45034 16.6492L5.01573 16.7179C5.01271 16.6988 5.02064 16.6795 5.03641 16.668L5.29535 17.0237ZM5.06673 17.0981C5.14721 17.0981 5.22766 17.0731 5.29553 17.0236L5.03622 16.6681C5.0454 16.6614 5.05619 16.6581 5.06673 16.6581V17.0981ZM4.89123 17.0562C4.94681 17.0844 5.00707 17.0981 5.06673 17.0981V16.6581C5.07453 16.6581 5.08264 16.6599 5.09021 16.6638L4.89123 17.0562ZM3.40315 16.3032L4.89139 17.0563L5.09005 16.6637L3.60181 15.9106L3.40315 16.3032ZM2.15269 17.0546L3.60375 16.3022L3.40122 15.9116L1.95017 16.664L2.15269 17.0546ZM1.75021 17.0272C1.86875 17.1107 2.02384 17.1213 2.15257 17.0546L1.95029 16.6639C1.96732 16.6551 1.9879 16.6565 2.00359 16.6675L1.75021 17.0272ZM1.58912 16.6572C1.56946 16.801 1.63166 16.9437 1.75013 17.0272L2.00367 16.6676C2.01938 16.6787 2.0277 16.6976 2.02507 16.7169L1.58912 16.6572ZM1.81656 14.988L1.58911 16.6573L2.02508 16.7167L2.25253 15.0474L1.81656 14.988ZM0.87556 14.0225L1.86868 15.1622L2.20041 14.8732L1.20729 13.7335L0.87556 14.0225ZM0.79931 13.6464C0.756701 13.7765 0.785676 13.9193 0.875526 14.0225L1.20732 13.7335C1.21924 13.7472 1.2231 13.7662 1.21744 13.7834L0.79931 13.6464ZM1.0833 13.3884C0.949902 13.4184 0.841831 13.5163 0.799257 13.6466L1.21749 13.7833C1.21177 13.8008 1.19731 13.8138 1.17966 13.8178L1.0833 13.3884ZM2.54733 13.0598L1.08329 13.3884L1.17967 13.8178L2.64371 13.4891L2.54733 13.0598ZM3.16528 11.849L2.40505 13.1643L2.78599 13.3845L3.54623 12.0692L3.16528 11.849ZM3.50157 11.655C3.3628 11.655 3.23472 11.729 3.16533 11.849L3.54618 12.0693C3.53702 12.0851 3.52007 12.095 3.50157 12.095V11.655ZM3.83776 11.849C3.76841 11.7291 3.6404 11.655 3.50157 11.655V12.095C3.483 12.095 3.46603 12.0851 3.45691 12.0693L3.83776 11.849ZM4.59808 13.1643L3.8378 11.849L3.45686 12.0692L4.21715 13.3845L4.59808 13.1643ZM5.9198 13.3884L4.45581 13.0598L4.35942 13.4891L5.82342 13.8178L5.9198 13.3884ZM4.4984 14.7098C4.49127 14.718 4.48598 14.7253 4.48261 14.7301C4.48091 14.7326 4.47955 14.7346 4.47866 14.736C4.47783 14.7373 4.4771 14.7384 4.47702 14.7385L4.84749 14.9759C4.84818 14.9748 4.84636 14.9777 4.84402 14.9811C4.84139 14.9849 4.83688 14.9911 4.83061 14.9983L4.4984 14.7098ZM5.35634 13.7252L4.49864 14.7095L4.83037 14.9986L5.68807 14.0143L5.35634 13.7252ZM4.21371 13.8015L5.47402 14.0844L5.57039 13.6551L4.31009 13.3722L4.21371 13.8015ZM4.18114 13.7916C4.18116 13.7916 4.18149 13.7917 4.18185 13.7919C4.18225 13.792 4.18286 13.7922 4.1836 13.7925C4.18506 13.7931 4.18735 13.7939 4.19018 13.7949C4.19583 13.7968 4.20445 13.7995 4.21517 13.8018L4.30862 13.3719C4.31878 13.3741 4.32686 13.3766 4.33198 13.3783C4.33656 13.3799 4.34036 13.3814 4.33946 13.3811L4.18114 13.7916ZM4.21005 13.8004C4.20037 13.7982 4.19271 13.7957 4.188 13.7941C4.1838 13.7926 4.18029 13.7913 4.18115 13.7916L4.33946 13.3811C4.33943 13.381 4.33914 13.3809 4.3388 13.3808C4.33844 13.3807 4.33788 13.3804 4.3372 13.3802C4.33587 13.3797 4.33375 13.3789 4.33114 13.378C4.32595 13.3762 4.31779 13.3736 4.30759 13.3713L4.21005 13.8004ZM4.16587 13.7866C4.16922 13.7879 4.18616 13.7945 4.20585 13.7994L4.31179 13.3723C4.31695 13.3736 4.32055 13.3748 4.32171 13.3752C4.32253 13.3755 4.32284 13.3756 4.31971 13.3744L4.16587 13.7866ZM4.16419 13.786C4.16466 13.7862 4.16517 13.7864 4.16586 13.7866L4.31971 13.3744C4.31904 13.3742 4.31817 13.3738 4.31727 13.3735L4.16419 13.786ZM4.16552 13.7865L4.1652 13.7864L4.31627 13.3731C4.31231 13.3717 4.30868 13.3705 4.30767 13.3701L4.16552 13.7865ZM4.13342 13.7737C4.14944 13.7813 4.16445 13.7862 4.16552 13.7865L4.30767 13.3701C4.3056 13.3694 4.30692 13.3698 4.30869 13.3705C4.31077 13.3713 4.31534 13.373 4.3212 13.3758L4.13342 13.7737ZM4.10159 13.7563C4.10347 13.7574 4.11711 13.766 4.13345 13.7737L4.32117 13.3758C4.32628 13.3782 4.32993 13.3803 4.3314 13.3811C4.33258 13.3818 4.33331 13.3822 4.3311 13.3809L4.10159 13.7563ZM4.10028 13.7555C4.10012 13.7554 4.10015 13.7554 4.10159 13.7563L4.3311 13.3809C4.33007 13.3803 4.32764 13.3788 4.325 13.3772L4.10028 13.7555ZM4.09933 13.7549L4.10003 13.7553L4.32525 13.3774C4.3223 13.3756 4.31957 13.374 4.31857 13.3735L4.09933 13.7549ZM4.06846 13.735C4.08339 13.7461 4.09785 13.7541 4.09931 13.7549L4.31858 13.3735C4.31645 13.3722 4.31751 13.3728 4.31899 13.3737C4.32077 13.3748 4.32479 13.3774 4.32988 13.3811L4.06846 13.735ZM4.0406 13.7117C4.04178 13.7128 4.05416 13.7246 4.06977 13.736L4.32857 13.3801C4.334 13.3841 4.33785 13.3874 4.33958 13.3889C4.34103 13.3902 4.34202 13.3911 4.3402 13.3894L4.0406 13.7117ZM4.04005 13.7112L4.04059 13.7117L4.34021 13.3894C4.33939 13.3887 4.33713 13.3866 4.33461 13.3843L4.04005 13.7112ZM4.04097 13.712C4.04191 13.7128 4.04217 13.713 4.04233 13.7132L4.33234 13.3823C4.33084 13.381 4.32942 13.3797 4.32869 13.3791L4.04097 13.712ZM4.01196 13.6841C4.02547 13.699 4.03925 13.7105 4.04098 13.712L4.32868 13.3791C4.32652 13.3772 4.3273 13.3779 4.32846 13.379C4.32989 13.3803 4.33337 13.3835 4.33769 13.3883L4.01196 13.6841ZM3.99182 13.6593C3.99255 13.6603 4.00132 13.6725 4.01274 13.6849L4.33691 13.3874C4.341 13.3919 4.34384 13.3954 4.3451 13.3971C4.34616 13.3984 4.34689 13.3994 4.34562 13.3977L3.99182 13.6593ZM3.99203 13.6595L3.99181 13.6593L4.34562 13.3977C4.34495 13.3968 4.34255 13.3935 4.33982 13.39L3.99203 13.6595ZM3.98945 13.6562C3.99014 13.6571 3.99046 13.6575 3.99074 13.6579L4.34111 13.3917C4.34012 13.3904 4.33918 13.3892 4.33859 13.3884L3.98945 13.6562ZM3.96616 13.6224C3.97644 13.6396 3.98756 13.6537 3.98945 13.6562L4.33859 13.3884C4.33668 13.3859 4.33702 13.3863 4.33765 13.3872C4.33849 13.3884 4.34085 13.3917 4.34375 13.3965L3.96616 13.6224ZM3.98366 13.6474C3.98425 13.6481 3.98184 13.6452 3.97916 13.6417C3.97616 13.6377 3.97144 13.6312 3.96634 13.6227L4.34358 13.3962C4.3382 13.3873 4.33318 13.3803 4.32986 13.376C4.32819 13.3738 4.32679 13.372 4.32589 13.3709C4.32544 13.3703 4.32506 13.3698 4.32482 13.3695C4.32459 13.3693 4.32439 13.369 4.32437 13.369L3.98366 13.6474ZM3.96198 13.6159C3.96784 13.6262 3.97345 13.6341 3.97731 13.6393C3.97923 13.6419 3.98087 13.6439 3.98192 13.6453C3.98245 13.6459 3.98289 13.6465 3.98319 13.6468C3.98346 13.6472 3.98369 13.6475 3.98371 13.6475L4.32432 13.3689C4.32369 13.3682 4.32651 13.3716 4.32964 13.3758C4.33315 13.3804 4.33843 13.3879 4.34399 13.3976L3.96198 13.6159ZM3.3111 12.4899L3.96252 13.6169L4.34345 13.3967L3.69204 12.2697L3.3111 12.4899ZM3.04062 13.6169L3.69204 12.4899L3.3111 12.2697L2.65968 13.3967L3.04062 13.6169ZM2.7896 13.8015C2.89535 13.7776 2.98625 13.7108 3.04052 13.6171L2.65978 13.3965C2.66691 13.3842 2.67891 13.3754 2.69287 13.3722L2.7896 13.8015ZM1.52912 14.0844L2.78942 13.8015L2.69305 13.3722L1.43274 13.6551L1.52912 14.0844ZM2.50449 14.7095L1.64679 13.7252L1.31506 14.0143L2.17276 14.9986L2.50449 14.7095ZM2.59651 15.017C2.61158 14.9061 2.57811 14.794 2.50451 14.7096L2.17275 14.9986C2.16294 14.9873 2.15853 14.9724 2.16051 14.9578L2.59651 15.017ZM2.40258 16.4406L2.5965 15.0171L2.16052 14.9577L1.9666 16.3812L2.40258 16.4406ZM3.32281 15.573L2.08333 16.2156L2.28585 16.6062L3.52533 15.9636L3.32281 15.573ZM3.6769 15.5712C3.56545 15.5148 3.43365 15.5155 3.3228 15.573L3.52534 15.9636C3.5106 15.9712 3.4931 15.9713 3.47825 15.9638L3.6769 15.5712ZM4.94847 16.2147L3.67691 15.5712L3.47825 15.9638L4.74981 16.6073L4.94847 16.2147ZM4.40784 15.0252L4.63183 16.4452L5.06645 16.3767L4.84247 14.9567L4.40784 15.0252ZM4.40494 14.9916C4.40494 14.9917 4.40497 14.993 4.40501 14.9945C4.40506 14.9961 4.40514 14.9985 4.40531 15.0015C4.40564 15.0073 4.40633 15.016 4.40803 15.0264L4.84228 14.9555C4.84377 14.9646 4.84435 14.9721 4.84461 14.9766C4.84483 14.9807 4.84488 14.984 4.84485 14.9828L4.40494 14.9916ZM4.40642 15.0113C4.40557 15.0045 4.40524 14.999 4.40509 14.9958C4.40496 14.993 4.40492 14.9906 4.40494 14.9916L4.84485 14.9827C4.84485 14.9827 4.84479 14.9793 4.84461 14.9754C4.84441 14.9711 4.84401 14.9646 4.84303 14.9567L4.40642 15.0113ZM4.40377 14.9678C4.40385 14.9783 4.40429 14.9924 4.40609 15.0085L4.84335 14.9595C4.84381 14.9636 4.84376 14.9658 4.84375 14.9643L4.40377 14.9678ZM4.40492 14.932C4.40355 14.9484 4.40372 14.9626 4.40377 14.968L4.84375 14.964C4.84373 14.9618 4.84374 14.9617 4.84373 14.9623C4.84372 14.9631 4.84366 14.9655 4.84337 14.9689L4.40492 14.932ZM4.41013 14.8944C4.4089 14.9012 4.40638 14.9151 4.40496 14.9316L4.84333 14.9694C4.84287 14.9747 4.84218 14.9778 4.84297 14.9735L4.41013 14.8944ZM4.41891 14.8566C4.41403 14.8733 4.41126 14.8884 4.41045 14.8927L4.84265 14.9752C4.84318 14.9724 4.8432 14.9723 4.8431 14.9728C4.84294 14.9736 4.84234 14.9763 4.84122 14.9801L4.41891 14.8566ZM4.43141 14.8208C4.42846 14.8282 4.42313 14.8417 4.41846 14.8582L4.84167 14.9785C4.83997 14.9845 4.8385 14.9878 4.83968 14.9849L4.43141 14.8208ZM4.44695 14.7865C4.43902 14.8017 4.43353 14.8155 4.43128 14.8211L4.83981 14.9846C4.84059 14.9826 4.84062 14.9826 4.84034 14.9832C4.84 14.984 4.83898 14.9863 4.83732 14.9895L4.44695 14.7865ZM4.46478 14.7559C4.46265 14.7592 4.45364 14.773 4.44536 14.7896L4.83891 14.9864C4.8368 14.9906 4.83511 14.9934 4.83458 14.9943C4.8342 14.995 4.8341 14.9951 4.83566 14.9926L4.46478 14.7559ZM4.48951 14.7214C4.47881 14.7346 4.47052 14.7469 4.46447 14.7564L4.83597 14.9922C4.83626 14.9917 4.83461 14.9944 4.83132 14.9984L4.48951 14.7214ZM4.47703 14.7385C4.47649 14.7394 4.47772 14.7374 4.47926 14.7351C4.481 14.7326 4.48404 14.7282 4.48819 14.723L4.83264 14.9968C4.83747 14.9907 4.84114 14.9855 4.84348 14.982C4.84563 14.9788 4.84743 14.976 4.84747 14.976L4.47703 14.7385Z" fill="#3A970E" mask="url(#path-7-outside-3_8_395)"/>
</svg>
