<?xml version="1.0" encoding="UTF-8"?>
<svg width="20px" height="20px" viewBox="0 0 20 20" version="1.1" xmlns="http://www.w3.org/2000/svg" xmlns:xlink="http://www.w3.org/1999/xlink">
    <title>icons / Vários / 16 / Produtos TAP Copy 4</title>
    <defs>
        <path d="M8.49218903,1.3972854 C4.5718608,1.3972854 1.38250832,4.62062557 1.38250832,8.58273158 C1.38250832,12.5448371 4.5718608,15.7679772 8.49218903,15.7679772 C12.4125173,15.7679772 15.6018698,12.5448371 15.6018698,8.58273158 C15.6018698,7.22432395 15.2268732,5.95300655 14.5761265,4.86848276 C14.540271,4.82503769 14.5113489,4.77718799 14.4869831,4.7269359 C13.2231279,2.72726351 11.0092022,1.3972854 8.49218903,1.3972854 Z M16.7478576,6.55783334 C16.9037595,7.20750625 16.9885448,7.88520851 16.9885448,8.58273158 C16.9885448,13.3174375 13.1771695,17.1694293 8.49218903,17.1694293 C8.01537095,17.1694293 7.54825956,17.1275858 7.09283588,17.0511065 C8.32836331,18.0437353 9.86975161,18.6027146 11.507811,18.6027146 C15.4281392,18.6027146 18.6174917,15.3793744 18.6174917,11.4172684 C18.6174917,9.58136611 17.9328705,7.86118362 16.7478576,6.55783334 Z M4.3886216,16.0985195 C1.77196587,14.6332009 -0.00416666667,11.8140797 -0.00416666667,8.58273158 C-0.00416666667,3.8478251 3.80740669,-0.00416666667 8.49218903,-0.00416666667 C11.468786,-0.00416666667 14.0909883,1.55184559 15.6088031,3.90027904 C18.3235166,5.41484892 20.0041667,8.27341065 20.0041667,11.4172684 C20.0041667,16.1519748 16.1927914,20.0041667 11.507811,20.0041667 C8.61065069,20.0041667 5.96527105,18.5460557 4.3886216,16.0985195 Z M5.79934892,12.5592054 C5.42097538,12.5592054 5.11424419,12.247584 5.11424419,11.8631774 L5.11424419,5.81032014 C5.11424419,5.51898252 5.29295867,5.25827022 5.56210695,5.1574459 C5.83184246,5.05622328 6.13387574,5.1367638 6.32022424,5.35829979 L8.60416762,8.07380287 L10.8879153,5.35829979 C11.0742638,5.1367638 11.3762971,5.05622328 11.6460326,5.1574459 C11.9151809,5.25827022 12.0938953,5.51898252 12.0938953,5.81032014 L12.0938953,11.8631774 C12.0938953,12.247584 11.7871642,12.5592054 11.4087906,12.5592054 C11.0304171,12.5592054 10.7236859,12.247584 10.7236859,11.8631774 L10.7236859,7.69655551 L9.14970674,9.56807499 C9.00837942,9.73611614 8.80558844,9.81586098 8.60416762,9.80850303 C8.40255109,9.81586098 8.19976012,9.73611614 8.05862855,9.56807499 L6.48445361,7.69655551 L6.48445361,11.8631774 C6.48445361,12.247584 6.17772247,12.5592054 5.79934892,12.5592054 Z" id="path-1"></path>
    </defs>
    <g id="Menu" stroke="none" stroke-width="1" fill="none" fill-rule="evenodd">
        <g id="1920---Menu---TAP-Miles&amp;go-Copy" transform="translate(-777.000000, -128.000000)">
            <g id="Group-10" transform="translate(361.000000, 96.000000)">
                <g id="icons-/-Vários-/-16-/-Produtos-TAP-Copy-4" transform="translate(416.000000, 32.000000)">
                    <mask id="mask-2" fill="white">
                        <use xlink:href="#path-1"></use>
                    </mask>
                    <use id="Manage-Miles" fill="#3A970E" fill-rule="nonzero" xlink:href="#path-1"></use>
                </g>
            </g>
        </g>
    </g>
</svg>