<?xml version="1.0" encoding="UTF-8"?>
<svg width="17px" height="19px" viewBox="0 0 17 19" version="1.1" xmlns="http://www.w3.org/2000/svg" xmlns:xlink="http://www.w3.org/1999/xlink">
    <title>icons / Vários / 16 / Produtos TAP Copy 88</title>
    <defs>
        <path d="M16.7798456,16.8618309 C16.7798456,17.3500106 16.3828836,17.7471471 15.8947039,17.7471471 L6.55493223,17.7471471 C6.06675257,17.7471471 5.66961606,17.3500106 5.66961606,16.8618309 L5.66961606,10.488287 L13.4091561,10.488287 L11.1247055,12.772912 C10.8861097,13.0111591 10.8861097,13.3978308 11.1245311,13.6360779 C11.243829,13.7552014 11.3999279,13.8148503 11.5562012,13.8148503 C11.7124745,13.8148503 11.8687478,13.7552014 11.9878713,13.6360779 L15.3133881,10.310561 C15.3423405,10.281783 15.368328,10.2498656 15.3911759,10.2158552 C15.3997222,10.2027743 15.4054778,10.1888213 15.4131519,10.1753916 C15.4250119,10.1542877 15.4375696,10.1335327 15.4469879,10.1108591 C15.4548364,10.0920226 15.4591967,10.072314 15.4649523,10.0529542 C15.4705335,10.0342922 15.4776844,10.0163277 15.4815215,9.99714235 C15.48937,9.958074 15.4933815,9.91865688 15.4935559,9.87906532 C15.4935559,9.87854206 15.4935559,9.87819325 15.4935559,9.87784444 C15.4935559,9.83772961 15.48937,9.79744042 15.4815215,9.75802326 C15.478382,9.74197735 15.4722776,9.72732672 15.4679173,9.71197843 C15.4612896,9.68913044 15.4558829,9.66593365 15.446639,9.64378328 C15.4393137,9.62634208 15.4293722,9.61064498 15.4204772,9.59407581 C15.4107101,9.57558813 15.4023383,9.55640279 15.3904783,9.53861273 C15.3728627,9.51227651 15.3519332,9.48855645 15.3304805,9.46535965 C15.3248993,9.45908079 15.3207134,9.45210431 15.3147834,9.4459999 L11.9880457,6.11908775 C11.7497987,5.88084074 11.3631269,5.88066633 11.1248799,6.11908775 C10.8862841,6.35733477 10.8862841,6.74383214 11.1247055,6.98225361 L13.4096793,9.26740182 L5.66961606,9.26740182 L5.66961606,2.93519361 C5.66961606,2.44718836 6.06675257,2.05005185 6.55493223,2.05005185 L15.8947039,2.05005185 C16.3828836,2.05005185 16.7798456,2.44718836 16.7798456,2.93519361 L16.7798456,16.8618309 Z M15.8947039,0.829166667 L6.55493223,0.829166667 C5.3935216,0.829166667 4.44873088,1.77395739 4.44873088,2.93519361 L4.44873088,9.26740182 L2.44002593,9.26740182 C2.1028872,9.26740182 1.82958333,9.54070569 1.82958333,9.87784444 C1.82958333,10.2149831 2.1028872,10.488287 2.44002593,10.488287 L4.44873088,10.488287 L4.44873088,16.8618309 C4.44873088,18.0232416 5.3935216,18.9680323 6.55493223,18.9680323 L15.8947039,18.9680323 C17.0559401,18.9680323 18.0007308,18.0232416 18.0007308,16.8618309 L18.0007308,2.93519361 C18.0007308,1.77395739 17.0559401,0.829166667 15.8947039,0.829166667 Z" id="path-1"></path>
    </defs>
    <g id="Menu" stroke="none" stroke-width="1" fill="none" fill-rule="evenodd">
        <g id="1920---Menu---Preparar-a-viagem-Copy" transform="translate(-829.000000, -129.000000)">
            <g id="Group-4-Copy" transform="translate(412.000000, 96.000000)">
                <g id="icons-/-Vários-/-16-/-Produtos-TAP-Copy-88" transform="translate(416.000000, 33.000000)">
                    <mask id="mask-2" fill="white">
                        <use xlink:href="#path-1"></use>
                    </mask>
                    <use id="Boarding-Gate" fill="#3A970E" fill-rule="nonzero" xlink:href="#path-1"></use>
                </g>
            </g>
        </g>
    </g>
</svg>