<?xml version="1.0" encoding="UTF-8"?>
<svg width="20px" height="20px" viewBox="0 0 20 20" version="1.1" xmlns="http://www.w3.org/2000/svg" xmlns:xlink="http://www.w3.org/1999/xlink">
    <title>icons / Vários / 16 / Produtos TAP Copy 56</title>
    <defs>
        <path d="M18.7127337,16.906757 C18.641772,17.1679631 18.4721431,17.38634 18.2326251,17.5225832 L17.7585938,17.7952458 C17.5201482,17.9309603 17.2430937,17.9674446 16.9785513,17.8983536 C16.7177626,17.8303201 16.4995152,17.6671103 16.3627753,17.4385107 L14.0498172,13.1474671 C13.9411404,12.9460104 13.7287915,12.8201662 13.4973169,12.8201662 L7.43840332,12.8201662 C7.40372686,12.8129398 7.36404546,12.8076522 7.31989553,12.8064184 C7.30523844,12.8062422 7.29004514,12.8062422 7.2748518,12.806771 C7.19852778,12.8097673 7.12273997,12.8016596 7.04838212,12.7875594 C6.99457994,12.7637654 6.93666661,12.7487839 6.87625082,12.7406763 C6.65514347,12.6576613 6.46120536,12.5007966 6.33840765,12.2910561 L1.38949944,3.87200226 C1.1054739,3.38660284 1.27152785,2.76531273 1.77094091,2.48084117 L2.22656149,2.20888354 C2.71989723,1.92846579 3.32637845,2.08515427 3.60754407,2.56544237 C3.64758291,2.63382835 3.69977641,2.69058166 3.75858345,2.73711233 C3.95162788,2.95231665 4.27765845,3.01136124 4.53969838,2.86207536 C4.77689275,2.72688968 5.05341105,2.69146293 5.31795336,2.76090642 C5.582317,2.83087866 5.80342435,2.9981423 5.94087914,3.23291065 L7.53939416,5.95319194 L6.46674641,5.95319194 L5.61127364,4.67271743 C5.42108913,4.38824588 5.03321286,4.309461 4.74471871,4.49681742 C4.45622454,4.6843501 4.3763256,5.06681806 4.56633136,5.35128961 L5.57480969,6.86053987 C5.62610949,6.93756223 5.6940325,6.99625434 5.76856912,7.04172747 C5.87706723,7.13108748 6.01487951,7.18695955 6.1671701,7.18695955 L11.8809274,7.18695955 C12.4105483,7.18695955 12.8252364,7.58529022 12.8254151,8.08390858 L12.8068257,9.19993952 C12.7308591,9.30198973 12.6845642,9.42695275 12.6845642,9.56319596 C12.6845642,9.78263033 12.8016421,9.97404055 12.9766332,10.0833171 C13.0901362,10.1985863 13.2483254,10.271026 13.4240316,10.2712023 L13.8017194,10.2712023 C13.9205847,10.2712023 14.0305128,10.236833 14.1250688,10.1800797 L14.7982219,10.1800797 C15.0954745,10.1800797 15.3966595,10.3353582 15.6040035,10.5953307 C15.6113321,10.6046721 15.6199118,10.6145422 15.6279553,10.6235311 C15.6536946,10.6524365 15.7067818,10.7439115 15.7384197,10.7985498 L18.5994095,16.1192607 C18.6029844,16.1259583 18.6065593,16.1324796 18.6104916,16.139001 C18.7474102,16.3727118 18.7836954,16.6455507 18.7127337,16.906757 Z M7.41784769,17.9270827 L7.41784769,14.0539337 L13.1214166,14.0539337 L15.2091562,17.9270827 L7.41784769,17.9270827 Z M19.6999414,15.5323398 L16.8444927,10.2211466 C16.841454,10.215154 16.8380579,10.2093377 16.8348405,10.2035213 L16.8248307,10.1864248 C16.7610188,10.076267 16.6821924,9.94037633 16.5772692,9.81981959 C16.1284409,9.26444792 15.4808484,8.94631215 14.7982219,8.94631215 L14.0625081,8.94631215 L14.0766289,8.09395497 C14.0766289,6.9135919 13.0915662,5.95319194 11.8809274,5.95319194 L8.98543986,5.95319194 L7.02389406,2.61514559 C6.72002785,2.09590568 6.2290158,1.72436538 5.64166028,1.56926317 C5.23590952,1.46210164 4.81836159,1.46950424 4.42476545,1.58160084 C3.72676688,0.796219641 2.56438923,0.591942978 1.59005114,1.14678589 L1.13425182,1.41874352 C0.0485556999,2.03703734 -0.323054808,3.41427448 0.306484494,4.48976732 L5.25521396,12.9088212 C5.47632131,13.2865303 5.79466585,13.583692 6.16663385,13.7789798 L6.16663385,18.5439665 C6.16663385,18.8846626 6.44672699,19.1608503 6.79224077,19.1608503 L16.703463,19.1608503 C16.764415,19.1608503 16.8219708,19.1495702 16.8775605,19.1337075 C16.999822,19.1534477 17.1222622,19.1666667 17.2445236,19.1666667 C17.6406222,19.1666667 18.0322521,19.0639114 18.3863456,18.8624548 L18.8605557,18.5897922 C19.3871379,18.2899866 19.763932,17.8056447 19.9214062,17.2259502 C20.077808,16.6501333 19.9991603,16.0492884 19.6999414,15.5323398 Z M10.631501,9.47489341 L7.95300971,9.47489341 C7.60749594,9.47489341 7.32740279,9.75108114 7.32740279,10.0917772 C7.32740279,10.4324733 7.60749594,10.708661 7.95300971,10.708661 L10.631501,10.708661 C10.9770148,10.708661 11.2571079,10.4324733 11.2571079,10.0917772 C11.2571079,9.75108114 10.9770148,9.47489341 10.631501,9.47489341 Z" id="path-1"></path>
    </defs>
    <g id="Menu" stroke="none" stroke-width="1" fill="none" fill-rule="evenodd">
        <g id="1920---Menu---Beneficios-TAP-Copy" transform="translate(-882.000000, -128.000000)">
            <g id="Group-9" transform="translate(466.000000, 96.000000)">
                <g id="icons-/-Vários-/-16-/-Produtos-TAP-Copy-56" transform="translate(416.000000, 32.000000)">
                    <mask id="mask-2" fill="white">
                        <use xlink:href="#path-1"></use>
                    </mask>
                    <use id="Seat" fill="#3A970E" fill-rule="nonzero" xlink:href="#path-1"></use>
                </g>
            </g>
        </g>
    </g>
</svg>