<svg width="20" height="20" viewBox="0 0 20 20" fill="none" xmlns="http://www.w3.org/2000/svg">
<g clip-path="url(#clip0_828_15903)">
<path d="M14.2 16.6C14.1 16.6 14 16.5 13.9 16.5C13.8 16.5 13.7 16.5 13.6 16.6C12.5 17.2 11.2 17.5 9.9 17.5C5.4 17.5 1.7 13.9 1.7 9.4C1.8 5 5.5 1.3 10 1.3C14.5 1.3 18.2 4.9 18.2 9.4C18.2 11.3 17.6 13 16.4 14.5C16.2 14.7 16.2 15 16.3 15.2L17.5 18L14.2 16.6ZM17.7 15C18.9 13.4 19.6 11.4 19.6 9.4C19.5 4.2 15.2 0 10 0C4.8 0 0.5 4.2 0.5 9.4C0.5 14.6 4.8 18.8 10 18.8C11.4 18.8 12.7 18.5 14 17.9L18.5 19.9C18.6 19.9 18.7 20 18.8 20C19 20 19.2 19.9 19.3 19.8C19.5 19.6 19.6 19.3 19.4 19.1L17.7 15ZM9.9 4.6C8.7 4.6 7.7 5 6.9 5.8C6.7 5.9 6.6 6.1 6.6 6.3C6.6 6.6 6.9 6.9 7.2 6.9C7.3 6.9 7.5 6.8 7.6 6.7C8.3 6.1 9 5.8 9.8 5.8C11 5.8 11.8 6.4 11.8 7.4C11.8 8.1 11.4 9 9.4 9.2C9.2 9.3 9.1 9.4 9 9.4C9 9.5 9 9.6 9 9.8L9.1 11C9.1 11.2 9.3 11.4 9.5 11.4H9.6C9.8 11.4 10 11.2 10 11L10.1 10.2H10.3C11.6 10 13.1 9.3 13.1 7.4C13.1 5.7 11.8 4.6 9.9 4.6ZM9.6 13.1C9.1 13.1 8.7 13.5 8.7 14C8.7 14.5 9.1 14.9 9.6 14.9C10.1 14.9 10.5 14.5 10.5 14C10.5 13.5 10.1 13.1 9.6 13.1Z" fill="#3A970E"/>
</g>
<defs>
<clipPath id="clip0_828_15903">
<rect width="20" height="20" fill="white"/>
</clipPath>
</defs>
</svg>
