<?xml version="1.0" encoding="UTF-8"?>
<svg width="20px" height="20px" viewBox="0 0 20 20" version="1.1" xmlns="http://www.w3.org/2000/svg" xmlns:xlink="http://www.w3.org/1999/xlink">
    <title>icons / Vários / 16 / Produtos TAP Copy 2</title>
    <defs>
        <path d="M10,18.6014544 C14.7428674,18.6014544 18.6014545,14.7430674 18.6014545,10 C18.6014545,5.25713256 14.7428674,1.39854558 10,1.39854558 C5.2571326,1.39854558 1.39854553,5.25713256 1.39854553,10 C1.39854553,14.7430674 5.2571326,18.6014544 10,18.6014544 Z M10,0 C15.5140653,0 20,4.48593442 20,10 C20,15.5140656 15.5140653,20 10,20 C4.48593465,20 0,15.5140656 0,10 C0,4.48593442 4.48593465,0 10,0 Z M13.5009976,6.09011907 C13.7728482,6.19197535 13.9534884,6.45463535 13.9534884,6.74837395 L13.9534884,13.2517242 C13.9534884,13.6390981 13.6434521,13.9534884 13.2610014,13.9534884 C12.8785508,13.9534884 12.5685145,13.6390981 12.5685145,13.2517242 L12.5685145,8.64694744 L10.7852617,10.7572526 C10.6420158,10.9266786 10.436644,11.00668 10.2324592,10.9990605 C10.0284723,11.00668 9.82310051,10.9266786 9.68005247,10.7572526 L7.89660181,8.64674651 L7.89660181,13.2517242 C7.89660181,13.6390981 7.58656549,13.9534884 7.20411484,13.9534884 C6.82166419,13.9534884 6.51162791,13.6390981 6.51162791,13.2517242 L6.51162791,6.74837395 C6.51162791,6.45463535 6.69207023,6.19197535 6.96392079,6.09011907 C7.2357714,5.98806279 7.54165279,6.06906605 7.73020707,6.29202698 L10.2324592,9.25347209 L12.7349092,6.29202698 C12.9234635,6.06906605 13.2293449,5.98826326 13.5009976,6.09011907 Z" id="path-1"></path>
    </defs>
    <g id="Menu" stroke="none" stroke-width="1" fill="none" fill-rule="evenodd">
        <g id="1920---Menu---TAP-Miles&amp;go-Copy" transform="translate(-393.000000, -128.000000)">
            <g id="Group-10" transform="translate(361.000000, 96.000000)">
                <g id="icons-/-Vários-/-16-/-Produtos-TAP-Copy-2" transform="translate(32.000000, 32.000000)">
                    <mask id="mask-2" fill="white">
                        <use xlink:href="#path-1"></use>
                    </mask>
                    <use id="Miles" fill="#3A970E" fill-rule="nonzero" xlink:href="#path-1"></use>
                </g>
            </g>
        </g>
    </g>
</svg>